<svg xml:space="preserve" style="enable-background:new 0 0 3000 3000;" viewBox="0 0 3000 3000" y="0px" x="0px" xmlns:xlink="http://www.w3.org/1999/xlink" xmlns="http://www.w3.org/2000/svg" id="Layer_1" version="1.1">
<style type="text/css">
	.st0{opacity:0;fill:#FFFFFF;}
	.st1{fill:#FFFFFF;}
	.st2{fill:#479B13;}
	.st3{fill:#9DE94C;}
	.st4{fill:#02190B;}
</style>
<g>
	<rect height="3000" width="3000" class="st0"></rect>
	<g>
		<g>
			<g>
				<g>
					<path d="M953.2,1390.8c23.1-2.5,337-19.8,332.9-6.6c-4.1,13.2-133.9,330.1-132.2,337.7s-55.3,46.1-55.3,46.1
						l-118.9-18.3c0,0-12.4-234.1-10.7-237.4C970.5,1508.9,953.2,1390.8,953.2,1390.8z" class="st1"></path>
					<path d="M1729.4,1659.9c2.6,2.6,29.1,103.9,29.1,103.9l-205.1-3.7c0,0,7.7-155.3,6-207.3
						c-1.7-52,8.6-185.9,22.5-187.2c13.9-1.3,97.3-7.3,98.6,0c1.3,7.3,71.5,302.4,74.1,303.7
						C1757.2,1670.5,1729.4,1659.9,1729.4,1659.9z" class="st1"></path>
					<path d="M955.3,1068.8c-20.9,11.3-13.5,71.2,34.4,80.5c47.9,9.3,160.5,7.5,195.8-21.2
						c35.2-28.7,197.7-112.7,327.2-69c129.6,43.7,292.3,155.6,385.9,218.3c93.7,62.7,334.5,88.7,433.8,21.8
						c99.3-66.9,175.4-219,187.3-254.9c12-35.9,91.6-130.9,127.5-169.2s-25.7-84.5-72.2-31.6c-46.6,52.9-131.1,181.2-163.2,230.5
						c-32.2,49.3-135.2,163.8-249.5,163.8c-114.3,0-217.1-60.1-288.2-150.9c-71.1-90.8-202.9-171.2-290.4-202.3
						s-285.9-5.7-368.5,40.1c-82.6,45.8-215.1,143.7-231.9,147.8C966.6,1076.6,955.3,1068.8,955.3,1068.8z" class="st1"></path>
					<path d="M224.1,873c41,6.2,323.8-160.2,423.3-150.1s271-125.4,217.6-172.6c-53.4-47.2-227.1-96.7-328.3-69.7
						c-101.2,27-206.9,63.5-274.3,98.3S156.1,673.2,151,728.1c-5.1,54.9-17.4,56.6,0,88.6S224.1,873,224.1,873z" class="st1"></path>
					<path d="M1829.9,1772.6c-3.4,0-104-18.3-104-18.3l-31-22.1l3-278.9c0,0,109.1-104.4,111.2-102.7
						s321.8,42,418.2-11.5s195.7-159.2,204.6-178.7c8.9-19.5,51.5-89.9,61.4-114.8s51.3-128.3,85.5-151.4c0,0-23.4-1.9-41.5,13.4
						c0,0,64.1-95.6,114.4-104.8c50.3-9.2,57.6,11.5,22.3,48.8c-35.3,37.2-82,134.5-121.3,212.3c-39.3,77.8-70.1,155.7-144.1,264.3
						c-74,108.7-111.7,134.1-191.9,173.4c-80.1,39.3-60.1,77.8-168,97.1c-107.9,19.3-134.1,28.5-134.1,28.5l-45.5,17
						c0,0-21.6,17-19.3,42.4S1829.9,1772.6,1829.9,1772.6z" class="st2"></path>
					<path d="M1106.8,1703.2c1.8,2.2,29.6,64.8,33.1,64.8c3.5,0,132.3,0,132.3,0l20.7-153.9c0,0,36.2,17.6,131.4,17.6
						c95.3,0,133.2,5.7,133.2,5.7v-136.7c0,0-180.4-66.6-188.8-69.7c-8.4-3.1-183-15.4-183-15.4s-114.2,133.2-112.9,134.1
						S1106.8,1703.2,1106.8,1703.2z" class="st2"></path>
					<path d="M565.9,1040.2l188.3-20.5l229.2,333.2l-5.8,183.3l-3.7,69c0,0-74.7-40.5-125.3-81.1
						c-50.5-40.5-147.4-127-207-244.2C582,1162.5,565.9,1040.2,565.9,1040.2z" class="st2"></path>
					<path d="M836.5,661.6l-39.2-85.8l62.5-35.7c0,0,53.1,90.3,64,139.4c10.9,49.2,44.7,136,4.5,152.9
						c-40.2,16.9-73.4-8.9-73.4-8.9l-4-72L836.5,661.6z" class="st2"></path>
					<path d="M202.3,853c0,0,0,14.7,0-50.4s22.5-140.4,130-176.4c107.5-36,278.1-94.5,351.8-94.5s163.7,31,163.7,31
						s-22.3,12.4-2,46.1s46.6,89.7,64,178.1l20.1-8.2c0,0,1,98.2,6,172.2s16.5,134.4,16.5,134.4s1.3,40.8,50.6,40.8
						c94.9,0,206.4-176.8,446.9-176.8c205.3,0,314.7,128,417.5,222.7s189.6,126.9,288,126.9c98.4,0,215.8-80.6,261-158.4
						s77.1-95.2,77.1-95.2s-27.8,94.6-83.9,169.4c-56.1,74.8-221.8,297.9-543.9,295.9l-24.9-56.5l-17.5-17.8c0,0-1.6,0-10.4,0
						s-25.2,34.2-25.2,72.1s-1.6,208.1-90.4,217.5l-74.2-37.1c0,0-3.8-67.6-3.8-123c0-55.4,16.9-118.8,16.9-118.8h-53.5l-26.8,73.1
						c0,0-22,2.4-57.9,8.3c-35.9,5.9-70.8,6-116.8-4.1c-46-10.1-98.2-19.1-98.2-19.1s-63.5-17.9-63.5,29.2s-6.1,157.8-101.7,214.9
						l-67.1-66.6v-232.8c0,0-78.5,0.1-147.8-42.1c-79.5-48.4-241.6-218.8-218.8-382.3c0,0-206.7,23-280.6,1.2
						c-74-21.9-110.2-23.4-143.4-58.1S202.3,853,202.3,853z" class="st3"></path>
					<g>
						<circle r="100" cy="678.9" cx="684" class="st4"></circle>
						<circle r="33.1" cy="646.4" cx="666.4" class="st1"></circle>
					</g>
					<circle r="33.9" cy="728.1" cx="304.7" class="st4"></circle>
					<polygon points="1242.2,1771.4 1248.9,1792.2 1325.2,1792.2 1339.1,1760.1 1267.2,1762.7"></polygon>
					<polygon points="1540.8,1774.5 1539.1,1792.5 1597.6,1792.5 1618.5,1774.5"></polygon>
					<g>
						<path d="M1270.1,872.3c-20.5,7-40.7,15.3-60.6,24.9c-12.8,6.2-25,12.7-36.7,19.4c8,15.3,18.9,28.6,31.1,37.9
							c22.8-12.6,47.5-24.2,74.6-34C1279.4,905.2,1276.5,888.4,1270.1,872.3z M1635.4,881.4c-0.7-0.3-1.5-0.6-2.2-0.9
							c-5.9,16.8-7.9,33.9-5.8,49.6c25.7,10.5,51.8,23.6,77.4,39.6c12.7-8,24.6-20.5,33.5-36
							C1706.4,913.1,1672.1,895.5,1635.4,881.4z M1446.8,843.9h-0.5c-17,0-33.6,0.7-49.9,2.1c3.1,18.6,10.6,35.1,20.8,46.9
							c9.5-0.5,19.2-0.8,29.1-0.8h0.5c13.1,0,27.5,0.8,42.7,2.4c10.5-11.4,18.4-27.5,21.9-45.9
							C1489.3,845.6,1467.6,843.9,1446.8,843.9z M1270.1,872.3c-20.5,7-40.7,15.3-60.6,24.9c-12.8,6.2-25,12.7-36.7,19.4
							c8,15.3,18.9,28.6,31.1,37.9c22.8-12.6,47.5-24.2,74.6-34C1279.4,905.2,1276.5,888.4,1270.1,872.3z M1998.8,1170.5
							c-0.1,0.1-0.1,0.2-0.2,0.3c-7.2,11.7-10.8,25.1-9.7,36.8c0.5,5.2,2.3,14.1,9.1,19.7c2,1.2,4,2.4,6.1,3.5
							c14.9,5.4,36.2-5.7,48.9-26.2c0.5-0.9,1.1-1.8,1.6-2.6C2035.7,1193.9,2017.2,1183.4,1998.8,1170.5z M1840.8,1020.2
							c-4-4.3-8-8.6-12.2-12.8c-6.1,6.2-11.7,13.3-16.6,21.2c-4.1,6.7-7.6,13.6-10.2,20.6c1.2,1.2,2.3,2.4,3.5,3.7
							c24.6,26.7,48.2,52,71.3,75.1c13.1-8,25-19.6,34.4-33.9C1888.9,1072,1865.7,1047.3,1840.8,1020.2z M1635.4,881.4
							c-0.7-0.3-1.5-0.6-2.2-0.9c-5.9,16.8-7.9,33.9-5.8,49.6c25.7,10.5,51.8,23.6,77.4,39.6c12.7-8,24.6-20.5,33.5-36
							C1706.4,913.1,1672.1,895.5,1635.4,881.4z M1446.8,843.9h-0.5c-17,0-33.6,0.7-49.9,2.1c3.1,18.6,10.6,35.1,20.8,46.9
							c9.5-0.5,19.2-0.8,29.1-0.8h0.5c13.1,0,27.5,0.8,42.7,2.4c10.5-11.4,18.4-27.5,21.9-45.9
							C1489.3,845.6,1467.6,843.9,1446.8,843.9z M1270.1,872.3c-20.5,7-40.7,15.3-60.6,24.9c-12.8,6.2-25,12.7-36.7,19.4
							c8,15.3,18.9,28.6,31.1,37.9c22.8-12.6,47.5-24.2,74.6-34C1279.4,905.2,1276.5,888.4,1270.1,872.3z M2379.4,1101.5
							c-4.1-5.5-8.8-10.1-13.9-13.7c-13.8,17.4-27.5,32.9-41.2,46.7c1.2,2,2.5,3.9,3.9,5.8c8.3,11,19.5,19.1,30.8,22.2
							c1.2,0.3,2.7,0.7,4.4,1c9.7-10,19.3-20.6,28.6-31.9C2390.9,1121.8,2386.6,1111.1,2379.4,1101.5z M2246.6,1201.4
							c-1-2.1-2.1-4.1-3.3-6.1c-19.3,9.7-39,16.4-59.3,20.2c1.1,4.5,2.7,9.1,4.9,13.6c6.4,13.3,16.4,23.5,26.7,28.5
							c12-3.4,23.6-7.5,34.9-12.4c0.9-2.3,1.4-4.4,1.8-6.2C2254.6,1227.4,2252.6,1213.7,2246.6,1201.4z M1998.8,1170.5
							c-0.1,0.1-0.1,0.2-0.2,0.3c-7.2,11.7-10.8,25.1-9.7,36.8c0.5,5.2,2.3,14.1,9.1,19.7c2,1.2,4,2.4,6.1,3.5
							c14.9,5.4,36.2-5.7,48.9-26.2c0.5-0.9,1.1-1.8,1.6-2.6C2035.7,1193.9,2017.2,1183.4,1998.8,1170.5z M1840.8,1020.2
							c-4-4.3-8-8.6-12.2-12.8c-6.1,6.2-11.7,13.3-16.6,21.2c-4.1,6.7-7.6,13.6-10.2,20.6c1.2,1.2,2.3,2.4,3.5,3.7
							c24.6,26.7,48.2,52,71.3,75.1c13.1-8,25-19.6,34.4-33.9C1888.9,1072,1865.7,1047.3,1840.8,1020.2z M1635.4,881.4
							c-0.7-0.3-1.5-0.6-2.2-0.9c-5.9,16.8-7.9,33.9-5.8,49.6c25.7,10.5,51.8,23.6,77.4,39.6c12.7-8,24.6-20.5,33.5-36
							C1706.4,913.1,1672.1,895.5,1635.4,881.4z M1446.8,843.9h-0.5c-17,0-33.6,0.7-49.9,2.1c3.1,18.6,10.6,35.1,20.8,46.9
							c9.5-0.5,19.2-0.8,29.1-0.8h0.5c13.1,0,27.5,0.8,42.7,2.4c10.5-11.4,18.4-27.5,21.9-45.9
							C1489.3,845.6,1467.6,843.9,1446.8,843.9z M1270.1,872.3c-20.5,7-40.7,15.3-60.6,24.9c-12.8,6.2-25,12.7-36.7,19.4
							c8,15.3,18.9,28.6,31.1,37.9c22.8-12.6,47.5-24.2,74.6-34C1279.4,905.2,1276.5,888.4,1270.1,872.3z M2598.2,851.6
							c-0.8-11.1-6.2-23-14.9-32.5c-0.5-0.5-0.9-1-1.4-1.5c-2.3,1.7-4.5,3.5-6.7,5.3c-15,11.1-28.6,22.8-41.9,36.2
							c0.8,1.1,1.7,2.1,2.6,3.1c8.7,9.5,20,16,31,17.9c3.6,0.6,9.5,1,15.2-0.9c4.2-3.7,8.5-7.3,13-10.8
							C2598.3,862.3,2598.5,855.7,2598.2,851.6z M2379.4,1101.5c-4.1-5.5-8.8-10.1-13.9-13.7c-13.8,17.4-27.5,32.9-41.2,46.7
							c1.2,2,2.5,3.9,3.9,5.8c8.3,11,19.5,19.1,30.8,22.2c1.2,0.3,2.7,0.7,4.4,1c9.7-10,19.3-20.6,28.6-31.9
							C2390.9,1121.8,2386.6,1111.1,2379.4,1101.5z M2246.6,1201.4c-1-2.1-2.1-4.1-3.3-6.1c-19.3,9.7-39,16.4-59.3,20.2
							c1.1,4.5,2.7,9.1,4.9,13.6c6.4,13.3,16.4,23.5,26.7,28.5c12-3.4,23.6-7.5,34.9-12.4c0.9-2.3,1.4-4.4,1.8-6.2
							C2254.6,1227.4,2252.6,1213.7,2246.6,1201.4z M1998.8,1170.5c-0.1,0.1-0.1,0.2-0.2,0.3c-7.2,11.7-10.8,25.1-9.7,36.8
							c0.5,5.2,2.3,14.1,9.1,19.7c2,1.2,4,2.4,6.1,3.5c14.9,5.4,36.2-5.7,48.9-26.2c0.5-0.9,1.1-1.8,1.6-2.6
							C2035.7,1193.9,2017.2,1183.4,1998.8,1170.5z M1840.8,1020.2c-4-4.3-8-8.6-12.2-12.8c-6.1,6.2-11.7,13.3-16.6,21.2
							c-4.1,6.7-7.6,13.6-10.2,20.6c1.2,1.2,2.3,2.4,3.5,3.7c24.6,26.7,48.2,52,71.3,75.1c13.1-8,25-19.6,34.4-33.9
							C1888.9,1072,1865.7,1047.3,1840.8,1020.2z M1635.4,881.4c-0.7-0.3-1.5-0.6-2.2-0.9c-5.9,16.8-7.9,33.9-5.8,49.6
							c25.7,10.5,51.8,23.6,77.4,39.6c12.7-8,24.6-20.5,33.5-36C1706.4,913.1,1672.1,895.5,1635.4,881.4z M1446.8,843.9h-0.5
							c-17,0-33.6,0.7-49.9,2.1c3.1,18.6,10.6,35.1,20.8,46.9c9.5-0.5,19.2-0.8,29.1-0.8h0.5c13.1,0,27.5,0.8,42.7,2.4
							c10.5-11.4,18.4-27.5,21.9-45.9C1489.3,845.6,1467.6,843.9,1446.8,843.9z M1270.1,872.3c-20.5,7-40.7,15.3-60.6,24.9
							c-12.8,6.2-25,12.7-36.7,19.4c8,15.3,18.9,28.6,31.1,37.9c22.8-12.6,47.5-24.2,74.6-34
							C1279.4,905.2,1276.5,888.4,1270.1,872.3z M2598.2,851.6c-0.8-11.1-6.2-23-14.9-32.5c-0.5-0.5-0.9-1-1.4-1.5
							c-2.3,1.7-4.5,3.5-6.7,5.3c-15,11.1-28.6,22.8-41.9,36.2c0.8,1.1,1.7,2.1,2.6,3.1c8.7,9.5,20,16,31,17.9
							c3.6,0.6,9.5,1,15.2-0.9c4.2-3.7,8.5-7.3,13-10.8C2598.3,862.3,2598.5,855.7,2598.2,851.6z M2379.4,1101.5
							c-4.1-5.5-8.8-10.1-13.9-13.7c-13.8,17.4-27.5,32.9-41.2,46.7c1.2,2,2.5,3.9,3.9,5.8c8.3,11,19.5,19.1,30.8,22.2
							c1.2,0.3,2.7,0.7,4.4,1c9.7-10,19.3-20.6,28.6-31.9C2390.9,1121.8,2386.6,1111.1,2379.4,1101.5z M2246.6,1201.4
							c-1-2.1-2.1-4.1-3.3-6.1c-19.3,9.7-39,16.4-59.3,20.2c1.1,4.5,2.7,9.1,4.9,13.6c6.4,13.3,16.4,23.5,26.7,28.5
							c12-3.4,23.6-7.5,34.9-12.4c0.9-2.3,1.4-4.4,1.8-6.2C2254.6,1227.4,2252.6,1213.7,2246.6,1201.4z M1998.8,1170.5
							c-0.1,0.1-0.1,0.2-0.2,0.3c-7.2,11.7-10.8,25.1-9.7,36.8c0.5,5.2,2.3,14.1,9.1,19.7c2,1.2,4,2.4,6.1,3.5
							c14.9,5.4,36.2-5.7,48.9-26.2c0.5-0.9,1.1-1.8,1.6-2.6C2035.7,1193.9,2017.2,1183.4,1998.8,1170.5z M1840.8,1020.2
							c-4-4.3-8-8.6-12.2-12.8c-6.1,6.2-11.7,13.3-16.6,21.2c-4.1,6.7-7.6,13.6-10.2,20.6c1.2,1.2,2.3,2.4,3.5,3.7
							c24.6,26.7,48.2,52,71.3,75.1c13.1-8,25-19.6,34.4-33.9C1888.9,1072,1865.7,1047.3,1840.8,1020.2z M1635.4,881.4
							c-0.7-0.3-1.5-0.6-2.2-0.9c-5.9,16.8-7.9,33.9-5.8,49.6c25.7,10.5,51.8,23.6,77.4,39.6c12.7-8,24.6-20.5,33.5-36
							C1706.4,913.1,1672.1,895.5,1635.4,881.4z M1446.8,843.9h-0.5c-17,0-33.6,0.7-49.9,2.1c3.1,18.6,10.6,35.1,20.8,46.9
							c9.5-0.5,19.2-0.8,29.1-0.8h0.5c13.1,0,27.5,0.8,42.7,2.4c10.5-11.4,18.4-27.5,21.9-45.9
							C1489.3,845.6,1467.6,843.9,1446.8,843.9z M1270.1,872.3c-20.5,7-40.7,15.3-60.6,24.9c-12.8,6.2-25,12.7-36.7,19.4
							c8,15.3,18.9,28.6,31.1,37.9c22.8-12.6,47.5-24.2,74.6-34C1279.4,905.2,1276.5,888.4,1270.1,872.3z M2598.2,851.6
							c-0.8-11.1-6.2-23-14.9-32.5c-0.5-0.5-0.9-1-1.4-1.5c-2.3,1.7-4.5,3.5-6.7,5.3c-15,11.1-28.6,22.8-41.9,36.2
							c0.8,1.1,1.7,2.1,2.6,3.1c8.7,9.5,20,16,31,17.9c3.6,0.6,9.5,1,15.2-0.9c4.2-3.7,8.5-7.3,13-10.8
							C2598.3,862.3,2598.5,855.7,2598.2,851.6z M2379.4,1101.5c-4.1-5.5-8.8-10.1-13.9-13.7c-13.8,17.4-27.5,32.9-41.2,46.7
							c1.2,2,2.5,3.9,3.9,5.8c8.3,11,19.5,19.1,30.8,22.2c1.2,0.3,2.7,0.7,4.4,1c9.7-10,19.3-20.6,28.6-31.9
							C2390.9,1121.8,2386.6,1111.1,2379.4,1101.5z M2246.6,1201.4c-1-2.1-2.1-4.1-3.3-6.1c-19.3,9.7-39,16.4-59.3,20.2
							c1.1,4.5,2.7,9.1,4.9,13.6c6.4,13.3,16.4,23.5,26.7,28.5c12-3.4,23.6-7.5,34.9-12.4c0.9-2.3,1.4-4.4,1.8-6.2
							C2254.6,1227.4,2252.6,1213.7,2246.6,1201.4z M1998.8,1170.5c-0.1,0.1-0.1,0.2-0.2,0.3c-7.2,11.7-10.8,25.1-9.7,36.8
							c0.5,5.2,2.3,14.1,9.1,19.7c2,1.2,4,2.4,6.1,3.5c14.9,5.4,36.2-5.7,48.9-26.2c0.5-0.9,1.1-1.8,1.6-2.6
							C2035.7,1193.9,2017.2,1183.4,1998.8,1170.5z M1840.8,1020.2c-4-4.3-8-8.6-12.2-12.8c-6.1,6.2-11.7,13.3-16.6,21.2
							c-4.1,6.7-7.6,13.6-10.2,20.6c1.2,1.2,2.3,2.4,3.5,3.7c24.6,26.7,48.2,52,71.3,75.1c13.1-8,25-19.6,34.4-33.9
							C1888.9,1072,1865.7,1047.3,1840.8,1020.2z M1635.4,881.4c-0.7-0.3-1.5-0.6-2.2-0.9c-5.9,16.8-7.9,33.9-5.8,49.6
							c25.7,10.5,51.8,23.6,77.4,39.6c12.7-8,24.6-20.5,33.5-36C1706.4,913.1,1672.1,895.5,1635.4,881.4z M1446.8,843.9h-0.5
							c-17,0-33.6,0.7-49.9,2.1c3.1,18.6,10.6,35.1,20.8,46.9c9.5-0.5,19.2-0.8,29.1-0.8h0.5c13.1,0,27.5,0.8,42.7,2.4
							c10.5-11.4,18.4-27.5,21.9-45.9C1489.3,845.6,1467.6,843.9,1446.8,843.9z M1270.1,872.3c-20.5,7-40.7,15.3-60.6,24.9
							c-12.8,6.2-25,12.7-36.7,19.4c8,15.3,18.9,28.6,31.1,37.9c22.8-12.6,47.5-24.2,74.6-34
							C1279.4,905.2,1276.5,888.4,1270.1,872.3z M2598.2,851.6c-0.8-11.1-6.2-23-14.9-32.5c-0.5-0.5-0.9-1-1.4-1.5
							c-2.3,1.7-4.5,3.5-6.7,5.3c-15,11.1-28.6,22.8-41.9,36.2c0.8,1.1,1.7,2.1,2.6,3.1c8.7,9.5,20,16,31,17.9
							c3.6,0.6,9.5,1,15.2-0.9c4.2-3.7,8.5-7.3,13-10.8C2598.3,862.3,2598.5,855.7,2598.2,851.6z M2379.4,1101.5
							c-4.1-5.5-8.8-10.1-13.9-13.7c-13.8,17.4-27.5,32.9-41.2,46.7c1.2,2,2.5,3.9,3.9,5.8c8.3,11,19.5,19.1,30.8,22.2
							c1.2,0.3,2.7,0.7,4.4,1c9.7-10,19.3-20.6,28.6-31.9C2390.9,1121.8,2386.6,1111.1,2379.4,1101.5z M2246.6,1201.4
							c-1-2.1-2.1-4.1-3.3-6.1c-19.3,9.7-39,16.4-59.3,20.2c1.1,4.5,2.7,9.1,4.9,13.6c6.4,13.3,16.4,23.5,26.7,28.5
							c12-3.4,23.6-7.5,34.9-12.4c0.9-2.3,1.4-4.4,1.8-6.2C2254.6,1227.4,2252.6,1213.7,2246.6,1201.4z M1998.8,1170.5
							c-0.1,0.1-0.1,0.2-0.2,0.3c-7.2,11.7-10.8,25.1-9.7,36.8c0.5,5.2,2.3,14.1,9.1,19.7c2,1.2,4,2.4,6.1,3.5
							c14.9,5.4,36.2-5.7,48.9-26.2c0.5-0.9,1.1-1.8,1.6-2.6C2035.7,1193.9,2017.2,1183.4,1998.8,1170.5z M1840.8,1020.2
							c-4-4.3-8-8.6-12.2-12.8c-6.1,6.2-11.7,13.3-16.6,21.2c-4.1,6.7-7.6,13.6-10.2,20.6c1.2,1.2,2.3,2.4,3.5,3.7
							c24.6,26.7,48.2,52,71.3,75.1c13.1-8,25-19.6,34.4-33.9C1888.9,1072,1865.7,1047.3,1840.8,1020.2z M1635.4,881.4
							c-0.7-0.3-1.5-0.6-2.2-0.9c-5.9,16.8-7.9,33.9-5.8,49.6c25.7,10.5,51.8,23.6,77.4,39.6c12.7-8,24.6-20.5,33.5-36
							C1706.4,913.1,1672.1,895.5,1635.4,881.4z M1446.8,843.9h-0.5c-17,0-33.6,0.7-49.9,2.1c3.1,18.6,10.6,35.1,20.8,46.9
							c9.5-0.5,19.2-0.8,29.1-0.8h0.5c13.1,0,27.5,0.8,42.7,2.4c10.5-11.4,18.4-27.5,21.9-45.9
							C1489.3,845.6,1467.6,843.9,1446.8,843.9z M1270.1,872.3c-20.5,7-40.7,15.3-60.6,24.9c-12.8,6.2-25,12.7-36.7,19.4
							c8,15.3,18.9,28.6,31.1,37.9c22.8-12.6,47.5-24.2,74.6-34C1279.4,905.2,1276.5,888.4,1270.1,872.3z M2598.2,851.6
							c-0.8-11.1-6.2-23-14.9-32.5c-0.5-0.5-0.9-1-1.4-1.5c-2.3,1.7-4.5,3.5-6.7,5.3c-15,11.1-28.6,22.8-41.9,36.2
							c0.8,1.1,1.7,2.1,2.6,3.1c8.7,9.5,20,16,31,17.9c3.6,0.6,9.5,1,15.2-0.9c4.2-3.7,8.5-7.3,13-10.8
							C2598.3,862.3,2598.5,855.7,2598.2,851.6z M2379.4,1101.5c-4.1-5.5-8.8-10.1-13.9-13.7c-13.8,17.4-27.5,32.9-41.2,46.7
							c1.2,2,2.5,3.9,3.9,5.8c8.3,11,19.5,19.1,30.8,22.2c1.2,0.3,2.7,0.7,4.4,1c9.7-10,19.3-20.6,28.6-31.9
							C2390.9,1121.8,2386.6,1111.1,2379.4,1101.5z M2246.6,1201.4c-1-2.1-2.1-4.1-3.3-6.1c-19.3,9.7-39,16.4-59.3,20.2
							c1.1,4.5,2.7,9.1,4.9,13.6c6.4,13.3,16.4,23.5,26.7,28.5c12-3.4,23.6-7.5,34.9-12.4c0.9-2.3,1.4-4.4,1.8-6.2
							C2254.6,1227.4,2252.6,1213.7,2246.6,1201.4z M1998.8,1170.5c-0.1,0.1-0.1,0.2-0.2,0.3c-7.2,11.7-10.8,25.1-9.7,36.8
							c0.5,5.2,2.3,14.1,9.1,19.7c2,1.2,4,2.4,6.1,3.5c14.9,5.4,36.2-5.7,48.9-26.2c0.5-0.9,1.1-1.8,1.6-2.6
							C2035.7,1193.9,2017.2,1183.4,1998.8,1170.5z M1840.8,1020.2c-4-4.3-8-8.6-12.2-12.8c-6.1,6.2-11.7,13.3-16.6,21.2
							c-4.1,6.7-7.6,13.6-10.2,20.6c1.2,1.2,2.3,2.4,3.5,3.7c24.6,26.7,48.2,52,71.3,75.1c13.1-8,25-19.6,34.4-33.9
							C1888.9,1072,1865.7,1047.3,1840.8,1020.2z M1635.4,881.4c-0.7-0.3-1.5-0.6-2.2-0.9c-5.9,16.8-7.9,33.9-5.8,49.6
							c25.7,10.5,51.8,23.6,77.4,39.6c12.7-8,24.6-20.5,33.5-36C1706.4,913.1,1672.1,895.5,1635.4,881.4z M1446.8,843.9h-0.5
							c-17,0-33.6,0.7-49.9,2.1c3.1,18.6,10.6,35.1,20.8,46.9c9.5-0.5,19.2-0.8,29.1-0.8h0.5c13.1,0,27.5,0.8,42.7,2.4
							c10.5-11.4,18.4-27.5,21.9-45.9C1489.3,845.6,1467.6,843.9,1446.8,843.9z M1270.1,872.3c-20.5,7-40.7,15.3-60.6,24.9
							c-12.8,6.2-25,12.7-36.7,19.4c8,15.3,18.9,28.6,31.1,37.9c22.8-12.6,47.5-24.2,74.6-34
							C1279.4,905.2,1276.5,888.4,1270.1,872.3z M2598.2,851.6c-0.8-11.1-6.2-23-14.9-32.5c-0.5-0.5-0.9-1-1.4-1.5
							c-2.3,1.7-4.5,3.5-6.7,5.3c-15,11.1-28.6,22.8-41.9,36.2c0.8,1.1,1.7,2.1,2.6,3.1c8.7,9.5,20,16,31,17.9
							c3.6,0.6,9.5,1,15.2-0.9c4.2-3.7,8.5-7.3,13-10.8C2598.3,862.3,2598.5,855.7,2598.2,851.6z M2365.6,1087.8
							c-13.8,17.4-27.5,32.9-41.2,46.7c1.2,2,2.5,3.9,3.9,5.8c8.3,11,19.5,19.1,30.8,22.2c1.2,0.3,2.7,0.7,4.4,1
							c9.7-10,19.3-20.6,28.6-31.9c-1.2-9.8-5.5-20.5-12.7-30C2375.3,1096.1,2370.6,1091.4,2365.6,1087.8z M2243.3,1195.3
							c-19.3,9.7-39,16.4-59.3,20.2c1.1,4.5,2.7,9.1,4.9,13.6c6.4,13.3,16.4,23.5,26.7,28.5c12-3.4,23.6-7.5,34.9-12.4
							c0.9-2.3,1.4-4.4,1.8-6.2c2.4-11.5,0.3-25.2-5.7-37.6C2245.6,1199.3,2244.5,1197.2,2243.3,1195.3z M1998.6,1170.8
							c-7.2,11.7-10.8,25.1-9.7,36.8c0.5,5.2,2.3,14.1,9.1,19.7c2,1.2,4,2.4,6.1,3.5c14.9,5.4,36.2-5.7,48.9-26.2
							c0.5-0.9,1.1-1.8,1.6-2.6c-18.9-8-37.3-18.5-55.8-31.4C1998.7,1170.6,1998.6,1170.7,1998.6,1170.8z M1828.6,1007.4
							c-6.1,6.2-11.7,13.3-16.6,21.2c-4.1,6.7-7.6,13.6-10.2,20.6c1.2,1.2,2.3,2.4,3.5,3.7c24.6,26.7,48.2,52,71.3,75.1
							c13.1-8,25-19.6,34.4-33.9c-22.1-22.1-45.3-46.9-70.2-73.9C1836.8,1015.9,1832.8,1011.6,1828.6,1007.4z M1822.9,1622.9
							c12.7-8.8,29.2-14.4,50.9-14.4c1,0,1.9,0,2.8,0l0.2-171.9l-53.7-0.1L1822.9,1622.9z M1669.5,1744.4c1.5,2.7,3.2,5.5,4.9,8.3
							h71.2c7.4,0,12.5-2.2,16.9-8.3l-44.2,0L1669.5,1744.4z M1738.3,933.8c-31.9-20.7-66.2-38.2-102.9-52.4
							c-0.7-0.3-1.5-0.6-2.2-0.9c-5.9,16.8-7.9,33.9-5.8,49.6c25.7,10.5,51.8,23.6,77.4,39.6
							C1717.6,961.8,1729.4,949.3,1738.3,933.8z M1539.2,1546.2c-0.1,59.3-0.1,150-0.2,184.3c0,8.7,0,13.8,0,13.8l-25.1,0
							l-214.8-0.2c0,0,0.2-172.4,0.2-204.1c0-31.7,1.2-86-24.3-86h-0.1c-21.8,0-25.8,9.4-25.8,9.4l-0.3,280.7l-85.3-0.1l-58.4-0.1
							c1.4,1.8,2.8,3.5,4.1,5.4c0.9,1.2,1.8,2.4,2.7,3.5h462.3c3.2-3,6.2-6,9-8.9c0-3.5,0-26,0.1-56.1c0.1-45.1,0.1-107.2,0.1-148.1
							c0.1-70.7,19.1-90,19.1-90s-9.5-6.4-34-6.4C1568.6,1443.2,1539.3,1471.8,1539.2,1546.2z M1446.3,892.2h0.5
							c13.1,0,27.5,0.8,42.7,2.4c10.5-11.4,18.4-27.5,21.9-45.9c-22.1-3.2-43.8-4.8-64.6-4.8h-0.5c-17,0-33.6,0.7-49.9,2.1
							c3.1,18.6,10.6,35.1,20.8,46.9C1426.7,892.4,1436.4,892.2,1446.3,892.2z M1203.8,954.5c22.8-12.6,47.5-24.2,74.6-34
							c0.9-15.3-2-32.1-8.4-48.2c-20.5,7-40.7,15.3-60.6,24.9c-12.8,6.2-25,12.7-36.7,19.4C1180.7,932,1191.6,945.2,1203.8,954.5z
							 M970.5,1050.1c-2.5-21.7-3.6-43.5-3.9-65.3c-7.2,10.4-13,22.8-16.7,35.9c-8.1,29-5.3,58,5.6,76.6c4.1,0.7,8.7,1.1,13.9,1.1
							c0,0,0,0,0.1,0c24.8,0,50.1-13.9,78.8-34.4c1.9-4.6,3.6-9.4,5-14.3c3.1-11,4.7-22.3,4.7-33.2c0-6.5-0.6-12.9-1.7-18.9
							C1023.3,1023.1,989.4,1049.1,970.5,1050.1z M2615.3,795.2c-11.3,6.7-22.5,14.1-33.3,22.4c-2.3,1.7-4.5,3.5-6.7,5.3
							c-15,11.1-28.6,22.8-41.9,36.2c-9,9-17.8,18.8-26.9,29.8c-0.6,0.7-1.2,1.4-1.7,2.1c-7.9,9.5-15.9,20-24.3,31.4
							c-11.4,15.6-23.6,33.1-37.1,53.2c-7,10.4-14.3,21.5-22.1,33.4c-0.5,0.8-1.1,1.6-1.6,2.5c-2,3-4,6.1-6.1,9.3
							c-5.9,9-11.7,17.7-17.5,26c-2.2,3.1-4.3,6.2-6.5,9.3c-8,11.2-15.9,21.8-23.8,31.7c-13.8,17.4-27.5,32.9-41.2,46.7
							c-9.9,9.9-19.8,18.9-29.7,27c-5.8,4.7-11.6,9.1-17.3,13.3c-11.2,8-22.6,14.8-34,20.6c-19.3,9.7-39,16.4-59.3,20.2
							c-12.9,2.4-26.2,3.7-39.8,3.9c-1.1,0-2.2,0-3.2,0h-0.3c-16.6,0-32.4-1.8-47.7-5.2c-13.1-2.9-25.8-7-38.4-12.3
							c-18.9-8-37.3-18.5-55.8-31.4c-10.5-7.3-21-15.4-31.6-24.3c-6.2-5.2-12.5-10.6-18.8-16.3c-12.2-11-24.6-22.9-37.4-35.7
							c-22.1-22.1-45.3-46.9-70.2-73.9c-4-4.3-8-8.6-12.2-12.8c-12-12.2-24.5-23.7-37.5-34.6c-3.7-3.1-7.4-6.1-11.1-9.1
							c-13.4-10.6-27.3-20.6-41.7-30c-31.9-20.7-66.2-38.2-102.9-52.4c-0.7-0.3-1.5-0.6-2.2-0.9c-15.9-6.1-32.2-11.5-48.5-16.1
							c-7.7-2.2-15.4-4.2-23.1-6c-16.8-4-33.6-7.2-50.2-9.6c-22.1-3.2-43.8-4.8-64.6-4.8h-0.5c-17,0-33.6,0.7-49.9,2.1
							c-17.2,1.4-34.1,3.7-50.7,6.7c-8.8,1.6-17.5,3.4-26.2,5.5c-16.7,3.9-33.1,8.6-49.3,14.1c-20.5,7-40.7,15.3-60.6,24.9
							c-12.8,6.2-25,12.7-36.7,19.4c-15.4,8.8-29.8,17.9-43.4,27.1c-10.3,6.9-20.1,13.8-29.4,20.7c-15.2,11.1-29.2,22-42.2,32.1
							c-0.5,0.4-0.9,0.7-1.4,1.1c-33,25.5-66.8,51.5-85.7,52.5c-2.5-21.7-3.6-43.5-3.9-65.3c-0.4-23.4,0.2-46.7,0.9-69.8
							c0.1-5.3,0.3-10.7,0.5-16c3.4-104.6,6.9-212.7-58.3-314.3c-32.7-50.9-82.8-87.9-149-109.7c-55.2-18.2-108-21-134.5-21h-0.4
							c-65.3,0-127.7,16.5-213.6,45.1c-10.3,3.4-20.5,6.7-30.5,9.9c-79,25.5-153.5,49.5-212.3,117.2
							c-30.3,34.8-47.9,81.5-50.9,134.9c-2.2,38,3.7,66.8,4.3,69.9c2.2,10.3,7.7,19.5,15.6,26.4c1.9,1.6,16.6,14,43.3,28
							c-2.9,12.5-0.8,26.2,6.3,37.6c35.9,58.2,88.1,95.8,159.4,115.1c54.9,14.8,117.9,18.7,199.8,19.3c0,1.1,0.1,2.1,0.2,3.2
							c8.3,85.4,34.5,167.6,77.9,244.3c34.4,60.7,79.5,118.1,134.1,170.4c92.5,88.7,180.6,132.6,184.3,134.4
							c4.5,2.2,9.1,3.7,13.9,4.4l-0.1,97.4l0,32.2c0,3.1,0.3,6.1,0.9,9c0.1,0.8,0.3,1.6,0.5,2.4c5.1,21.2,24.2,36.9,46.9,36.9
							l222,0.2l21,0c0,0,0,0,0.1,0c8.9,0,17.6-2.5,25.1-7c7,4.3,15.1,6.8,23.5,7c0.6,0,1.1,0,1.7,0l160.6,0.1c0.5,0,0.9,0,1.3,0
							l18,0l60,0.1c0,0,0.1,0,0.1,0c0.7,0,1.3,0,2-0.1c7.2-0.3,14.1-2.2,20.1-5.3c5.8,3,12.3,4.9,19.2,5.3c0.7,0,1.3,0.1,2,0.1
							c0.3,0,0.7,0,1,0l239.4,0.2c0,0,0,0,0.1,0c1.8,0,3.6-0.1,5.4-0.3c10.8-1.2,20.9-6,28.7-13.8c7.1-7.1,11.8-16.2,13.5-26
							c0.5-2.7,0.7-5.4,0.7-8.1l0.1-77.3c1.8,0.2,3.6,0.3,5.5,0.3c1.8,0,3.7-0.1,5.5-0.3c15.2-1.8,30.5-4.1,45.8-6.9
							c19.8-3.7,39.7-8.3,59.6-13.9c53.5-14.9,107.1-36.3,160.3-64.2c75.4-39.6,150-92.6,215.5-153.4
							c56.5-52.4,99.7-116.7,134.2-182.2c9.1-17.3,17.6-34.7,25.6-52c23.8-51.5,42.9-102,59.6-146.2c3.7-9.7,7.3-19.2,10.8-28.3
							c23.9-62.4,50.1-104.6,67.2-128.2c0.5-0.6,79.1-102.2,159-156.2C2819.6,735.8,2712.1,738,2615.3,795.2z M2637.3,843.1
							c-9.9,11.8-29,36.6-50.4,75.8c-12.5,23-25.8,50.9-38.5,83.9c-15,39.2-31.5,84.4-51.3,131.2c-6.8,16.1-14,32.3-21.6,48.6
							c-35.6,75.7-81.3,151.8-144.9,210.7c-108,100.2-254,190.6-413.7,219.8c-13.3,2.4-26.7,4.5-40.3,6v-10.7l0.2-171.9l-53.7-0.1
							l-0.2,186.4l-0.1,69.2l-0.1,52.3l-16,0l-44.3,0l-44.2,0l-48.8-0.1l-86.2-0.1c0,0,0-0.2,0-0.5c0-3.5,0-26,0.1-56.1
							c0.1-45.1,0.1-107.2,0.1-148.1c0.1-70.7,19.1-90,19.1-90s-9.5-6.4-34-6.4c0,0-29.2,28.7-29.3,103c-0.1,59.3-0.1,150-0.2,184.3
							c0,8.7,0,13.8,0,13.8l-25.1,0l-214.8-0.2c0,0,0.2-172.4,0.2-204.1c0-31.7,1.2-86-24.3-86h-0.1c-21.8,0-25.8,9.4-25.8,9.4
							l-0.3,280.7l-85.3-0.1l-58.4-0.1l-99.3-0.1v-13.7l0.1-44.2l0.2-241.4c0,0-13-5.7-26.5-5.7c-2.5,0-5,0.2-7.4,0.7
							c0,0-7,38.8-7.1,126.9c0,0-336.1-165.8-369.6-510.5l152.5-31.6c0,0-15.6-15-180.5-15.2c-164.9-0.1-275.5-9.9-338.4-111.5
							c1.4,0.9,48.2,30.5,157.6,30.6h0.3c111,0,215.5-62.6,267.7-62.6c0,0,0,0,0.1,0h0.1c52.1,0,80.8-26.5,80.8-26.5s-0.1,0-0.3,0
							c-3.5,0-34.8-0.2-65.3-8.2c-20.2-5.3-32.5-9.6-44-9.6c-7,0-13.7,1.6-21.8,5.4c-21.3,10.2-139.5,54.2-229.5,54.2h-0.3
							c-135.4-0.1-204.6-60.1-204.6-60.1s-20.9-97.8,35.8-163c56.7-65.2,133.5-83.7,221.6-113c87.9-29.2,142.8-42.6,198.4-42.6h0.3
							c55.7,0.1,181.9,13.3,242.9,108.5c69.8,108.8,49.6,228.6,49.1,354.9c-0.1,35,1.3,70.5,6.5,106.4c0,0,1,20.4,30.8,25.3
							c4.1,0.7,8.7,1.1,13.9,1.1c0,0,0,0,0.1,0c24.8,0,50.1-13.9,78.8-34.4c18.6-13.3,38.6-29.3,60.8-46.2
							c15.2-11.6,31.5-23.6,49.1-35.4c14.3-9.6,29.4-19,45.6-27.9c22.8-12.6,47.5-24.2,74.6-34c16.2-5.8,33.1-10.9,51-15.1
							c10-2.4,20.4-4.4,31-6.2c18-3,36.9-5.2,56.7-6.2c9.5-0.5,19.2-0.8,29.1-0.8h0.5c13.1,0,27.5,0.8,42.7,2.4
							c17.4,1.9,36.1,5,55.6,9.4c10,2.3,20.2,4.9,30.6,8c17,5,34.3,11,51.8,18.1c25.7,10.5,51.8,23.6,77.4,39.6
							c14.8,9.2,29.5,19.5,43.8,30.8c4.7,3.7,9.4,7.5,14,11.4c13.4,11.4,26.5,23.8,39.1,37.2c1.2,1.2,2.3,2.4,3.5,3.7
							c24.6,26.7,48.2,52,71.3,75.1c12.7,12.7,25.2,24.8,37.8,36.1c11.7,10.6,23.4,20.5,35.1,29.7c16,12.6,32.1,23.7,48.6,33.4
							c2,1.2,4,2.4,6.1,3.5c17.9,10,36.3,18.2,55.4,24.3c25.5,8.1,52.4,12.5,81.2,12.6h0.3c8.4,0,16.6-0.3,24.7-1.1
							c17.3-1.5,33.9-4.5,49.9-9c12-3.4,23.6-7.5,34.9-12.4c14.5-6.3,28.6-13.9,42.3-22.7c13.2-8.4,26-18,38.4-28.6
							c11-9.3,21.8-19.5,32.4-30.4c9.7-10,19.3-20.6,28.6-31.9c9.9-11.8,19.7-24.4,29.3-37.5c1.2-1.7,2.5-3.4,3.7-5.1
							c8.3-11.4,16.5-23.3,24.6-35.6c1.4-2.1,2.8-4.2,4.2-6.3c4.2-6.4,8.2-12.5,12.1-18.5c27.6-42,49.1-73.2,68.5-97.9
							c4.2-5.3,8.2-10.3,12.2-15c12-14.1,23.4-25.9,35.4-36.6c4.2-3.7,8.5-7.3,13-10.8c12.6-9.9,26.1-19.1,41.6-28.6
							c2.5-1.6,5.1-3.1,7.7-4.7C2644.1,835.4,2641.5,838.1,2637.3,843.1z M1270.1,872.3c-20.5,7-40.7,15.3-60.6,24.9
							c-12.8,6.2-25,12.7-36.7,19.4c8,15.3,18.9,28.6,31.1,37.9c22.8-12.6,47.5-24.2,74.6-34
							C1279.4,905.2,1276.5,888.4,1270.1,872.3z M1446.8,843.9h-0.5c-17,0-33.6,0.7-49.9,2.1c3.1,18.6,10.6,35.1,20.8,46.9
							c9.5-0.5,19.2-0.8,29.1-0.8h0.5c13.1,0,27.5,0.8,42.7,2.4c10.5-11.4,18.4-27.5,21.9-45.9
							C1489.3,845.6,1467.6,843.9,1446.8,843.9z M1635.4,881.4c-0.7-0.3-1.5-0.6-2.2-0.9c-5.9,16.8-7.9,33.9-5.8,49.6
							c25.7,10.5,51.8,23.6,77.4,39.6c12.7-8,24.6-20.5,33.5-36C1706.4,913.1,1672.1,895.5,1635.4,881.4z M1840.8,1020.2
							c-4-4.3-8-8.6-12.2-12.8c-6.1,6.2-11.7,13.3-16.6,21.2c-4.1,6.7-7.6,13.6-10.2,20.6c1.2,1.2,2.3,2.4,3.5,3.7
							c24.6,26.7,48.2,52,71.3,75.1c13.1-8,25-19.6,34.4-33.9C1888.9,1072,1865.7,1047.3,1840.8,1020.2z M1998.8,1170.5
							c-0.1,0.1-0.1,0.2-0.2,0.3c-7.2,11.7-10.8,25.1-9.7,36.8c0.5,5.2,2.3,14.1,9.1,19.7c2,1.2,4,2.4,6.1,3.5
							c14.9,5.4,36.2-5.7,48.9-26.2c0.5-0.9,1.1-1.8,1.6-2.6C2035.7,1193.9,2017.2,1183.4,1998.8,1170.5z M2246.6,1201.4
							c-1-2.1-2.1-4.1-3.3-6.1c-19.3,9.7-39,16.4-59.3,20.2c1.1,4.5,2.7,9.1,4.9,13.6c6.4,13.3,16.4,23.5,26.7,28.5
							c12-3.4,23.6-7.5,34.9-12.4c0.9-2.3,1.4-4.4,1.8-6.2C2254.6,1227.4,2252.6,1213.7,2246.6,1201.4z M2379.4,1101.5
							c-4.1-5.5-8.8-10.1-13.9-13.7c-13.8,17.4-27.5,32.9-41.2,46.7c1.2,2,2.5,3.9,3.9,5.8c8.3,11,19.5,19.1,30.8,22.2
							c1.2,0.3,2.7,0.7,4.4,1c9.7-10,19.3-20.6,28.6-31.9C2390.9,1121.8,2386.6,1111.1,2379.4,1101.5z M2598.2,851.6
							c-0.8-11.1-6.2-23-14.9-32.5c-0.5-0.5-0.9-1-1.4-1.5c-2.3,1.7-4.5,3.5-6.7,5.3c-15,11.1-28.6,22.8-41.9,36.2
							c0.8,1.1,1.7,2.1,2.6,3.1c8.7,9.5,20,16,31,17.9c3.6,0.6,9.5,1,15.2-0.9c4.2-3.7,8.5-7.3,13-10.8
							C2598.3,862.3,2598.5,855.7,2598.2,851.6z M1270.1,872.3c-20.5,7-40.7,15.3-60.6,24.9c-12.8,6.2-25,12.7-36.7,19.4
							c8,15.3,18.9,28.6,31.1,37.9c22.8-12.6,47.5-24.2,74.6-34C1279.4,905.2,1276.5,888.4,1270.1,872.3z M1446.8,843.9h-0.5
							c-17,0-33.6,0.7-49.9,2.1c3.1,18.6,10.6,35.1,20.8,46.9c9.5-0.5,19.2-0.8,29.1-0.8h0.5c13.1,0,27.5,0.8,42.7,2.4
							c10.5-11.4,18.4-27.5,21.9-45.9C1489.3,845.6,1467.6,843.9,1446.8,843.9z M1635.4,881.4c-0.7-0.3-1.5-0.6-2.2-0.9
							c-5.9,16.8-7.9,33.9-5.8,49.6c25.7,10.5,51.8,23.6,77.4,39.6c12.7-8,24.6-20.5,33.5-36
							C1706.4,913.1,1672.1,895.5,1635.4,881.4z M1840.8,1020.2c-4-4.3-8-8.6-12.2-12.8c-6.1,6.2-11.7,13.3-16.6,21.2
							c-4.1,6.7-7.6,13.6-10.2,20.6c1.2,1.2,2.3,2.4,3.5,3.7c24.6,26.7,48.2,52,71.3,75.1c13.1-8,25-19.6,34.4-33.9
							C1888.9,1072,1865.7,1047.3,1840.8,1020.2z M1998.8,1170.5c-0.1,0.1-0.1,0.2-0.2,0.3c-7.2,11.7-10.8,25.1-9.7,36.8
							c0.5,5.2,2.3,14.1,9.1,19.7c2,1.2,4,2.4,6.1,3.5c14.9,5.4,36.2-5.7,48.9-26.2c0.5-0.9,1.1-1.8,1.6-2.6
							C2035.7,1193.9,2017.2,1183.4,1998.8,1170.5z M2246.6,1201.4c-1-2.1-2.1-4.1-3.3-6.1c-19.3,9.7-39,16.4-59.3,20.2
							c1.1,4.5,2.7,9.1,4.9,13.6c6.4,13.3,16.4,23.5,26.7,28.5c12-3.4,23.6-7.5,34.9-12.4c0.9-2.3,1.4-4.4,1.8-6.2
							C2254.6,1227.4,2252.6,1213.7,2246.6,1201.4z M2379.4,1101.5c-4.1-5.5-8.8-10.1-13.9-13.7c-13.8,17.4-27.5,32.9-41.2,46.7
							c1.2,2,2.5,3.9,3.9,5.8c8.3,11,19.5,19.1,30.8,22.2c1.2,0.3,2.7,0.7,4.4,1c9.7-10,19.3-20.6,28.6-31.9
							C2390.9,1121.8,2386.6,1111.1,2379.4,1101.5z M2598.2,851.6c-0.8-11.1-6.2-23-14.9-32.5c-0.5-0.5-0.9-1-1.4-1.5
							c-2.3,1.7-4.5,3.5-6.7,5.3c-15,11.1-28.6,22.8-41.9,36.2c0.8,1.1,1.7,2.1,2.6,3.1c8.7,9.5,20,16,31,17.9
							c3.6,0.6,9.5,1,15.2-0.9c4.2-3.7,8.5-7.3,13-10.8C2598.3,862.3,2598.5,855.7,2598.2,851.6z M1270.1,872.3
							c-20.5,7-40.7,15.3-60.6,24.9c-12.8,6.2-25,12.7-36.7,19.4c8,15.3,18.9,28.6,31.1,37.9c22.8-12.6,47.5-24.2,74.6-34
							C1279.4,905.2,1276.5,888.4,1270.1,872.3z M1446.8,843.9h-0.5c-17,0-33.6,0.7-49.9,2.1c3.1,18.6,10.6,35.1,20.8,46.9
							c9.5-0.5,19.2-0.8,29.1-0.8h0.5c13.1,0,27.5,0.8,42.7,2.4c10.5-11.4,18.4-27.5,21.9-45.9
							C1489.3,845.6,1467.6,843.9,1446.8,843.9z M1635.4,881.4c-0.7-0.3-1.5-0.6-2.2-0.9c-5.9,16.8-7.9,33.9-5.8,49.6
							c25.7,10.5,51.8,23.6,77.4,39.6c12.7-8,24.6-20.5,33.5-36C1706.4,913.1,1672.1,895.5,1635.4,881.4z M1840.8,1020.2
							c-4-4.3-8-8.6-12.2-12.8c-6.1,6.2-11.7,13.3-16.6,21.2c-4.1,6.7-7.6,13.6-10.2,20.6c1.2,1.2,2.3,2.4,3.5,3.7
							c24.6,26.7,48.2,52,71.3,75.1c13.1-8,25-19.6,34.4-33.9C1888.9,1072,1865.7,1047.3,1840.8,1020.2z M1998.8,1170.5
							c-0.1,0.1-0.1,0.2-0.2,0.3c-7.2,11.7-10.8,25.1-9.7,36.8c0.5,5.2,2.3,14.1,9.1,19.7c2,1.2,4,2.4,6.1,3.5
							c14.9,5.4,36.2-5.7,48.9-26.2c0.5-0.9,1.1-1.8,1.6-2.6C2035.7,1193.9,2017.2,1183.4,1998.8,1170.5z M2246.6,1201.4
							c-1-2.1-2.1-4.1-3.3-6.1c-19.3,9.7-39,16.4-59.3,20.2c1.1,4.5,2.7,9.1,4.9,13.6c6.4,13.3,16.4,23.5,26.7,28.5
							c12-3.4,23.6-7.5,34.9-12.4c0.9-2.3,1.4-4.4,1.8-6.2C2254.6,1227.4,2252.6,1213.7,2246.6,1201.4z M2379.4,1101.5
							c-4.1-5.5-8.8-10.1-13.9-13.7c-13.8,17.4-27.5,32.9-41.2,46.7c1.2,2,2.5,3.9,3.9,5.8c8.3,11,19.5,19.1,30.8,22.2
							c1.2,0.3,2.7,0.7,4.4,1c9.7-10,19.3-20.6,28.6-31.9C2390.9,1121.8,2386.6,1111.1,2379.4,1101.5z M2598.2,851.6
							c-0.8-11.1-6.2-23-14.9-32.5c-0.5-0.5-0.9-1-1.4-1.5c-2.3,1.7-4.5,3.5-6.7,5.3c-15,11.1-28.6,22.8-41.9,36.2
							c0.8,1.1,1.7,2.1,2.6,3.1c8.7,9.5,20,16,31,17.9c3.6,0.6,9.5,1,15.2-0.9c4.2-3.7,8.5-7.3,13-10.8
							C2598.3,862.3,2598.5,855.7,2598.2,851.6z M1270.1,872.3c-20.5,7-40.7,15.3-60.6,24.9c-12.8,6.2-25,12.7-36.7,19.4
							c8,15.3,18.9,28.6,31.1,37.9c22.8-12.6,47.5-24.2,74.6-34C1279.4,905.2,1276.5,888.4,1270.1,872.3z M1446.8,843.9h-0.5
							c-17,0-33.6,0.7-49.9,2.1c3.1,18.6,10.6,35.1,20.8,46.9c9.5-0.5,19.2-0.8,29.1-0.8h0.5c13.1,0,27.5,0.8,42.7,2.4
							c10.5-11.4,18.4-27.5,21.9-45.9C1489.3,845.6,1467.6,843.9,1446.8,843.9z M1635.4,881.4c-0.7-0.3-1.5-0.6-2.2-0.9
							c-5.9,16.8-7.9,33.9-5.8,49.6c25.7,10.5,51.8,23.6,77.4,39.6c12.7-8,24.6-20.5,33.5-36
							C1706.4,913.1,1672.1,895.5,1635.4,881.4z M1840.8,1020.2c-4-4.3-8-8.6-12.2-12.8c-6.1,6.2-11.7,13.3-16.6,21.2
							c-4.1,6.7-7.6,13.6-10.2,20.6c1.2,1.2,2.3,2.4,3.5,3.7c24.6,26.7,48.2,52,71.3,75.1c13.1-8,25-19.6,34.4-33.9
							C1888.9,1072,1865.7,1047.3,1840.8,1020.2z M1998.8,1170.5c-0.1,0.1-0.1,0.2-0.2,0.3c-7.2,11.7-10.8,25.1-9.7,36.8
							c0.5,5.2,2.3,14.1,9.1,19.7c2,1.2,4,2.4,6.1,3.5c14.9,5.4,36.2-5.7,48.9-26.2c0.5-0.9,1.1-1.8,1.6-2.6
							C2035.7,1193.9,2017.2,1183.4,1998.8,1170.5z M2246.6,1201.4c-1-2.1-2.1-4.1-3.3-6.1c-19.3,9.7-39,16.4-59.3,20.2
							c1.1,4.5,2.7,9.1,4.9,13.6c6.4,13.3,16.4,23.5,26.7,28.5c12-3.4,23.6-7.5,34.9-12.4c0.9-2.3,1.4-4.4,1.8-6.2
							C2254.6,1227.4,2252.6,1213.7,2246.6,1201.4z M2379.4,1101.5c-4.1-5.5-8.8-10.1-13.9-13.7c-13.8,17.4-27.5,32.9-41.2,46.7
							c1.2,2,2.5,3.9,3.9,5.8c8.3,11,19.5,19.1,30.8,22.2c1.2,0.3,2.7,0.7,4.4,1c9.7-10,19.3-20.6,28.6-31.9
							C2390.9,1121.8,2386.6,1111.1,2379.4,1101.5z M2598.2,851.6c-0.8-11.1-6.2-23-14.9-32.5c-0.5-0.5-0.9-1-1.4-1.5
							c-2.3,1.7-4.5,3.5-6.7,5.3c-15,11.1-28.6,22.8-41.9,36.2c0.8,1.1,1.7,2.1,2.6,3.1c8.7,9.5,20,16,31,17.9
							c3.6,0.6,9.5,1,15.2-0.9c4.2-3.7,8.5-7.3,13-10.8C2598.3,862.3,2598.5,855.7,2598.2,851.6z M1270.1,872.3
							c-20.5,7-40.7,15.3-60.6,24.9c-12.8,6.2-25,12.7-36.7,19.4c8,15.3,18.9,28.6,31.1,37.9c22.8-12.6,47.5-24.2,74.6-34
							C1279.4,905.2,1276.5,888.4,1270.1,872.3z M1446.8,843.9h-0.5c-17,0-33.6,0.7-49.9,2.1c3.1,18.6,10.6,35.1,20.8,46.9
							c9.5-0.5,19.2-0.8,29.1-0.8h0.5c13.1,0,27.5,0.8,42.7,2.4c10.5-11.4,18.4-27.5,21.9-45.9
							C1489.3,845.6,1467.6,843.9,1446.8,843.9z M1635.4,881.4c-0.7-0.3-1.5-0.6-2.2-0.9c-5.9,16.8-7.9,33.9-5.8,49.6
							c25.7,10.5,51.8,23.6,77.4,39.6c12.7-8,24.6-20.5,33.5-36C1706.4,913.1,1672.1,895.5,1635.4,881.4z M1840.8,1020.2
							c-4-4.3-8-8.6-12.2-12.8c-6.1,6.2-11.7,13.3-16.6,21.2c-4.1,6.7-7.6,13.6-10.2,20.6c1.2,1.2,2.3,2.4,3.5,3.7
							c24.6,26.7,48.2,52,71.3,75.1c13.1-8,25-19.6,34.4-33.9C1888.9,1072,1865.7,1047.3,1840.8,1020.2z M1998.8,1170.5
							c-0.1,0.1-0.1,0.2-0.2,0.3c-7.2,11.7-10.8,25.1-9.7,36.8c0.5,5.2,2.3,14.1,9.1,19.7c2,1.2,4,2.4,6.1,3.5
							c14.9,5.4,36.2-5.7,48.9-26.2c0.5-0.9,1.1-1.8,1.6-2.6C2035.7,1193.9,2017.2,1183.4,1998.8,1170.5z M2246.6,1201.4
							c-1-2.1-2.1-4.1-3.3-6.1c-19.3,9.7-39,16.4-59.3,20.2c1.1,4.5,2.7,9.1,4.9,13.6c6.4,13.3,16.4,23.5,26.7,28.5
							c12-3.4,23.6-7.5,34.9-12.4c0.9-2.3,1.4-4.4,1.8-6.2C2254.6,1227.4,2252.6,1213.7,2246.6,1201.4z M2379.4,1101.5
							c-4.1-5.5-8.8-10.1-13.9-13.7c-13.8,17.4-27.5,32.9-41.2,46.7c1.2,2,2.5,3.9,3.9,5.8c8.3,11,19.5,19.1,30.8,22.2
							c1.2,0.3,2.7,0.7,4.4,1c9.7-10,19.3-20.6,28.6-31.9C2390.9,1121.8,2386.6,1111.1,2379.4,1101.5z M2598.2,851.6
							c-0.8-11.1-6.2-23-14.9-32.5c-0.5-0.5-0.9-1-1.4-1.5c-2.3,1.7-4.5,3.5-6.7,5.3c-15,11.1-28.6,22.8-41.9,36.2
							c0.8,1.1,1.7,2.1,2.6,3.1c8.7,9.5,20,16,31,17.9c3.6,0.6,9.5,1,15.2-0.9c4.2-3.7,8.5-7.3,13-10.8
							C2598.3,862.3,2598.5,855.7,2598.2,851.6z M1270.1,872.3c-20.5,7-40.7,15.3-60.6,24.9c-12.8,6.2-25,12.7-36.7,19.4
							c8,15.3,18.9,28.6,31.1,37.9c22.8-12.6,47.5-24.2,74.6-34C1279.4,905.2,1276.5,888.4,1270.1,872.3z M1446.8,843.9h-0.5
							c-17,0-33.6,0.7-49.9,2.1c3.1,18.6,10.6,35.1,20.8,46.9c9.5-0.5,19.2-0.8,29.1-0.8h0.5c13.1,0,27.5,0.8,42.7,2.4
							c10.5-11.4,18.4-27.5,21.9-45.9C1489.3,845.6,1467.6,843.9,1446.8,843.9z M1635.4,881.4c-0.7-0.3-1.5-0.6-2.2-0.9
							c-5.9,16.8-7.9,33.9-5.8,49.6c25.7,10.5,51.8,23.6,77.4,39.6c12.7-8,24.6-20.5,33.5-36
							C1706.4,913.1,1672.1,895.5,1635.4,881.4z M1840.8,1020.2c-4-4.3-8-8.6-12.2-12.8c-6.1,6.2-11.7,13.3-16.6,21.2
							c-4.1,6.7-7.6,13.6-10.2,20.6c1.2,1.2,2.3,2.4,3.5,3.7c24.6,26.7,48.2,52,71.3,75.1c13.1-8,25-19.6,34.4-33.9
							C1888.9,1072,1865.7,1047.3,1840.8,1020.2z M1998.8,1170.5c-0.1,0.1-0.1,0.2-0.2,0.3c-7.2,11.7-10.8,25.1-9.7,36.8
							c0.5,5.2,2.3,14.1,9.1,19.7c2,1.2,4,2.4,6.1,3.5c14.9,5.4,36.2-5.7,48.9-26.2c0.5-0.9,1.1-1.8,1.6-2.6
							C2035.7,1193.9,2017.2,1183.4,1998.8,1170.5z M2246.6,1201.4c-1-2.1-2.1-4.1-3.3-6.1c-19.3,9.7-39,16.4-59.3,20.2
							c1.1,4.5,2.7,9.1,4.9,13.6c6.4,13.3,16.4,23.5,26.7,28.5c12-3.4,23.6-7.5,34.9-12.4c0.9-2.3,1.4-4.4,1.8-6.2
							C2254.6,1227.4,2252.6,1213.7,2246.6,1201.4z M2379.4,1101.5c-4.1-5.5-8.8-10.1-13.9-13.7c-13.8,17.4-27.5,32.9-41.2,46.7
							c1.2,2,2.5,3.9,3.9,5.8c8.3,11,19.5,19.1,30.8,22.2c1.2,0.3,2.7,0.7,4.4,1c9.7-10,19.3-20.6,28.6-31.9
							C2390.9,1121.8,2386.6,1111.1,2379.4,1101.5z M1270.1,872.3c-20.5,7-40.7,15.3-60.6,24.9c-12.8,6.2-25,12.7-36.7,19.4
							c8,15.3,18.9,28.6,31.1,37.9c22.8-12.6,47.5-24.2,74.6-34C1279.4,905.2,1276.5,888.4,1270.1,872.3z M1446.8,843.9h-0.5
							c-17,0-33.6,0.7-49.9,2.1c3.1,18.6,10.6,35.1,20.8,46.9c9.5-0.5,19.2-0.8,29.1-0.8h0.5c13.1,0,27.5,0.8,42.7,2.4
							c10.5-11.4,18.4-27.5,21.9-45.9C1489.3,845.6,1467.6,843.9,1446.8,843.9z M1635.4,881.4c-0.7-0.3-1.5-0.6-2.2-0.9
							c-5.9,16.8-7.9,33.9-5.8,49.6c25.7,10.5,51.8,23.6,77.4,39.6c12.7-8,24.6-20.5,33.5-36
							C1706.4,913.1,1672.1,895.5,1635.4,881.4z M1840.8,1020.2c-4-4.3-8-8.6-12.2-12.8c-6.1,6.2-11.7,13.3-16.6,21.2
							c-4.1,6.7-7.6,13.6-10.2,20.6c1.2,1.2,2.3,2.4,3.5,3.7c24.6,26.7,48.2,52,71.3,75.1c13.1-8,25-19.6,34.4-33.9
							C1888.9,1072,1865.7,1047.3,1840.8,1020.2z M1998.8,1170.5c-0.1,0.1-0.1,0.2-0.2,0.3c-7.2,11.7-10.8,25.1-9.7,36.8
							c0.5,5.2,2.3,14.1,9.1,19.7c2,1.2,4,2.4,6.1,3.5c14.9,5.4,36.2-5.7,48.9-26.2c0.5-0.9,1.1-1.8,1.6-2.6
							C2035.7,1193.9,2017.2,1183.4,1998.8,1170.5z M2246.6,1201.4c-1-2.1-2.1-4.1-3.3-6.1c-19.3,9.7-39,16.4-59.3,20.2
							c1.1,4.5,2.7,9.1,4.9,13.6c6.4,13.3,16.4,23.5,26.7,28.5c12-3.4,23.6-7.5,34.9-12.4c0.9-2.3,1.4-4.4,1.8-6.2
							C2254.6,1227.4,2252.6,1213.7,2246.6,1201.4z M1270.1,872.3c-20.5,7-40.7,15.3-60.6,24.9c-12.8,6.2-25,12.7-36.7,19.4
							c8,15.3,18.9,28.6,31.1,37.9c22.8-12.6,47.5-24.2,74.6-34C1279.4,905.2,1276.5,888.4,1270.1,872.3z M1446.8,843.9h-0.5
							c-17,0-33.6,0.7-49.9,2.1c3.1,18.6,10.6,35.1,20.8,46.9c9.5-0.5,19.2-0.8,29.1-0.8h0.5c13.1,0,27.5,0.8,42.7,2.4
							c10.5-11.4,18.4-27.5,21.9-45.9C1489.3,845.6,1467.6,843.9,1446.8,843.9z M1635.4,881.4c-0.7-0.3-1.5-0.6-2.2-0.9
							c-5.9,16.8-7.9,33.9-5.8,49.6c25.7,10.5,51.8,23.6,77.4,39.6c12.7-8,24.6-20.5,33.5-36
							C1706.4,913.1,1672.1,895.5,1635.4,881.4z M1840.8,1020.2c-4-4.3-8-8.6-12.2-12.8c-6.1,6.2-11.7,13.3-16.6,21.2
							c-4.1,6.7-7.6,13.6-10.2,20.6c1.2,1.2,2.3,2.4,3.5,3.7c24.6,26.7,48.2,52,71.3,75.1c13.1-8,25-19.6,34.4-33.9
							C1888.9,1072,1865.7,1047.3,1840.8,1020.2z M1270.1,872.3c-20.5,7-40.7,15.3-60.6,24.9c-12.8,6.2-25,12.7-36.7,19.4
							c8,15.3,18.9,28.6,31.1,37.9c22.8-12.6,47.5-24.2,74.6-34C1279.4,905.2,1276.5,888.4,1270.1,872.3z M1446.8,843.9h-0.5
							c-17,0-33.6,0.7-49.9,2.1c3.1,18.6,10.6,35.1,20.8,46.9c9.5-0.5,19.2-0.8,29.1-0.8h0.5c13.1,0,27.5,0.8,42.7,2.4
							c10.5-11.4,18.4-27.5,21.9-45.9C1489.3,845.6,1467.6,843.9,1446.8,843.9z"></path>
						<g>
							<g>
								<path d="M1454.1,691.3c-60.9,0-110.5,61-110.5,135.9c0,8.7,0.7,17.2,2,25.5c2.6,16.8,7.7,32.5,14.9,46.5
									c18-3,36.9-5.2,56.7-6.2c-10.2-11.8-17.8-28.3-20.8-46.9c-1-6-1.6-12.4-1.6-18.8c0-45.9,27.2-84.8,59.3-84.8
									c32.1,0,59.3,38.8,59.3,84.8c0,7.4-0.7,14.6-2,21.5c-3.5,18.4-11.4,34.5-21.9,45.9c17.4,1.9,36.1,5,55.6,9.4
									c7.6-13.7,13.3-29.1,16.5-45.7c1.9-10,2.9-20.4,2.9-31.1C1564.5,752.3,1515,691.3,1454.1,691.3z"></path>
								<path d="M1513.4,827.2c0,7.4-0.7,14.6-2,21.5c-22.1-3.2-43.8-4.8-64.6-4.8h-0.5c-17,0-33.6,0.7-49.9,2.1
									c-1-6-1.6-12.4-1.6-18.8c0-45.9,27.2-84.8,59.3-84.8C1486.3,742.5,1513.4,781.3,1513.4,827.2z" class="st2"></path>
							</g>
							<g>
								<path d="M1742.4,769.9c-28.6-11.7-60.8-8.4-90.6,9.3c-27.6,16.3-50.2,43.4-63.6,76.1c-1.2,3-2.4,6.1-3.4,9.1
									c-5.5,15.7-8.5,31.8-9.1,47.6c17,5,34.3,11,51.8,18.1c-2.1-15.8-0.1-32.9,5.8-49.6c0.7-2,1.4-3.9,2.2-5.9
									c9.2-22.5,24.2-40.8,42.3-51.5c10-5.9,20.2-8.9,29.7-8.9c5.5,0,10.7,1,15.6,3c29.8,12.2,40,59,22.3,102.3
									c-2,5-4.4,9.8-7,14.3c-8.9,15.5-20.7,28-33.5,36c14.8,9.2,29.5,19.5,43.8,30.8c11.8-10.1,22.5-22.5,31.3-36.9
									c4.8-7.8,9-16.1,12.6-24.9C1821.3,868.7,1798.7,792.9,1742.4,769.9z"></path>
								<path d="M1745.3,919.5c-2,5-4.4,9.8-7,14.3c-31.9-20.7-66.2-38.2-102.9-52.4c-0.7-0.3-1.5-0.6-2.2-0.9
									c0.7-2,1.4-3.9,2.2-5.9c9.2-22.5,24.2-40.8,42.3-51.5c10-5.9,20.2-8.9,29.7-8.9c5.5,0,10.7,1,15.6,3
									C1752.8,829.3,1763,876.2,1745.3,919.5z" class="st2"></path>
							</g>
							<g>
								<path d="M1980.6,1021.9c-3.3-34.5-19.5-62.5-45.7-78.8c-26.2-16.2-58.5-18.3-90.9-5.9c-19.4,7.5-37.5,19.7-52.8,35.6
									c-8.4,8.6-16,18.3-22.5,28.9c-2.1,3.4-4.1,6.8-5.9,10.3c13.4,11.4,26.5,23.8,39.1,37.2c2.7-7,6.1-13.9,10.2-20.6
									c4.9-7.8,10.5-15,16.6-21.2c10-10.1,21.5-17.9,33.6-22.5c7.9-3,15.6-4.5,22.8-4.5c8.4,0,16.2,2.1,22.9,6.2
									c12.3,7.6,20,21.9,21.8,40.2c0.3,2.6,0.4,5.3,0.4,8c0,18.6-6,38.4-17.2,56.4c-0.6,1-1.3,2-2,3
									c-9.4,14.3-21.3,25.9-34.4,33.9c12.7,12.7,25.2,24.8,37.8,36.1c3-2.2,5.8-4.5,8.6-6.8c9.3-8,17.9-17.2,25.4-27.5
									c2.8-3.8,5.5-7.7,8-11.8C1975,1087.9,1983.6,1053.8,1980.6,1021.9z"></path>
								<path d="M1930.1,1034.7c0,18.6-6,38.4-17.2,56.4c-0.6,1-1.3,2-2,3c-22.1-22.1-45.3-46.9-70.2-73.9
									c-4-4.3-8-8.6-12.2-12.8c10-10.1,21.5-17.9,33.6-22.5c7.9-3,15.6-4.5,22.8-4.5c8.4,0,16.2,2.1,22.9,6.2
									c12.3,7.6,20,21.9,21.8,40.2C1930,1029.3,1930.1,1032,1930.1,1034.7z" class="st2"></path>
							</g>
							<g>
								<path d="M2102.3,1164c-2.1-22.1-13-40.9-30-51.4c-32.6-20.2-79-5.1-105.1,33.5c-0.8,1.2-1.6,2.4-2.4,3.7
									c-8.6,13.8-13.8,29-15.3,44c16,12.6,32.1,23.7,48.6,33.4c-6.8-5.6-8.6-14.5-9.1-19.7c-1.1-11.7,2.4-25.1,9.7-36.8
									c0.1-0.1,0.1-0.2,0.2-0.3c10.5-16.9,27-27.3,40.7-27.3c4.3,0,8.3,1,11.9,3.2c8.6,5.3,10.8,15.7,11.3,21.4
									c1,10.8-1.9,23.1-8.1,34.1c-0.5,0.9-1,1.8-1.6,2.6c-12.7,20.5-34.1,31.6-48.9,26.2c17.9,10,36.3,18.2,55.4,24.3
									c10.4-7.6,19.8-17.5,27.3-29.6c2.3-3.7,4.3-7.4,6.1-11.3C2100.5,1197.9,2103.8,1180.5,2102.3,1164z"></path>
								<path d="M2054.6,1201.9c-18.9-8-37.3-18.5-55.8-31.4c10.5-16.9,27-27.3,40.7-27.3c4.3,0,8.3,1,11.9,3.2
									c8.6,5.3,10.8,15.7,11.3,21.4C2063.7,1178.6,2060.8,1190.8,2054.6,1201.9z" class="st2"></path>
							</g>
							<g>
								<path d="M2250.5,1245.1c14.5-6.3,28.6-13.9,42.3-22.7c-0.9-12.8-4.3-25.9-10.3-38.2c-1.6-3.2-3.3-6.4-5.1-9.4
									c-9.7-16-23-28.8-38.4-36.7c-19.8-10.2-41.5-11-59.5-2.4c-28.5,13.7-41.8,48.1-35.3,83.7c1.6,9,4.5,18.1,8.8,26.9
									c3.6,7.4,7.9,14.3,12.7,20.3c17.3-1.5,33.9-4.5,49.9-9c-10.3-5-20.4-15.2-26.7-28.5c-2.2-4.5-3.8-9.1-4.9-13.6
									c-4.7-19.4,0.1-37.9,12.8-44c3-1.4,6.2-2,9.2-2c6,0,11.5,2.2,14.9,4c5.2,2.7,10.2,6.6,14.6,11.3c2.9,3.2,5.6,6.7,7.9,10.5
									c1.2,2,2.3,4,3.3,6.1c6,12.4,8,26.1,5.7,37.6C2251.9,1240.7,2251.3,1242.8,2250.5,1245.1z"></path>
								<path d="M2243.3,1195.3c-19.3,9.7-39,16.4-59.3,20.2c-4.7-19.4,0.1-37.9,12.8-44c3-1.4,6.2-2,9.2-2
									c6,0,11.5,2.2,14.9,4c5.2,2.7,10.2,6.6,14.6,11.3C2238.3,1187.9,2241,1191.4,2243.3,1195.3z" class="st2"></path>
							</g>
							<g>
								<path d="M2411.1,1077.5c-6.4-8.5-13.8-15.7-21.8-21.5c-28.4-20.9-64.1-24.2-88.8-5.6c-30.8,23.3-33.3,72.5-5.9,111
									c0.6,0.9,1.2,1.8,1.9,2.7c9.5,12.7,21.4,22.8,34.5,29.6c11-9.3,21.8-19.5,32.4-30.4c-1.6-0.3-3.1-0.7-4.4-1
									c-11.3-3.2-22.5-11.3-30.8-22.2c-1.4-1.9-2.7-3.8-3.9-5.8c-12.1-19.8-12.4-42.7,0.2-52.3c4-3,8.9-4.4,14.2-4.4
									c8.5,0,18,3.6,26.8,10c5,3.7,9.7,8.3,13.9,13.7c7.2,9.5,11.5,20.2,12.7,30c9.9-11.8,19.7-24.4,29.3-37.5
									C2418.6,1088.4,2415.2,1082.9,2411.1,1077.5z"></path>
								<path d="M2365.6,1087.8c-13.8,17.4-27.5,32.9-41.2,46.7c-12.1-19.8-12.4-42.7,0.2-52.3c4-3,8.9-4.4,14.2-4.4
									C2347.3,1077.7,2356.8,1081.3,2365.6,1087.8z" class="st2"></path>
							</g>
							<g>
								<path d="M2516,901.5c-3.5-3.9-7.3-7.4-11.2-10.6c-31.3-25.4-73.4-28-99.4-4.3c-14.6,13.3-22.1,33.4-20.7,55
									c1.4,20.2,10.3,40.3,25.1,56.6c3.6,3.9,7.4,7.6,11.4,10.8c13.7,11,29.3,17.6,44.8,19.7c27.6-42,49.1-73.2,68.5-97.9
									C2530.3,920.5,2524.1,910.5,2516,901.5z M2493.6,983.6c-11.8,10.8-33.9,6.9-50.3-8.1c-1.4-1.3-2.8-2.7-4.2-4.2
									c-8.7-9.5-14.1-21.4-14.8-32.5c-0.4-5.6,0.1-15.9,7.8-22.9c4.6-4.1,10.6-6.1,17.3-6.1c10,0,21.3,4.4,31,12.5
									c2.1,1.8,4.2,3.7,6.1,5.9C2503.2,946.6,2506.4,972,2493.6,983.6z"></path>
								<path d="M2480.4,922.4c-11.4,15.6-23.6,33.1-37.1,53.2c-1.4-1.3-2.8-2.7-4.2-4.2c-8.7-9.5-14.1-21.4-14.8-32.5
									c-0.4-5.6,0.1-15.9,7.8-22.9c4.6-4.1,10.6-6.1,17.3-6.1C2459.3,909.9,2470.7,914.3,2480.4,922.4z" class="st2"></path>
							</g>
							<g>
								<path d="M2637.9,848.9c-0.1-1.9-0.3-3.8-0.6-5.7c-9.9,11.8-29,36.6-50.4,75.8c11.4-2.3,21.9-7.4,30.3-15
									C2631.8,890.5,2639.4,870.5,2637.9,848.9z M2636.7,839.7c-1.2-7-3.4-13.9-6.4-20.6c-3.8-8.5-8.8-16.6-15.1-23.9
									c-0.8-1-1.6-1.9-2.5-2.9c-14.8-16.3-34-27-54-30.3c-21.4-3.5-42.1,2.1-56.7,15.4c-14.7,13.3-22.2,33.4-20.7,55
									c1.4,20.2,10.3,40.2,25,56.4c0,0,0.1,0.1,0.1,0.1c11.4,12.5,25.3,21.7,40.2,26.8c12-14.1,23.4-25.9,35.4-36.6
									c-5.7,1.9-11.6,1.4-15.2,0.9c-11-1.8-22.3-8.3-31-17.9c-0.9-1-1.8-2-2.6-3.1c-7.1-8.9-11.5-19.5-12.2-29.4
									c-0.4-5.5,0.1-15.9,7.8-22.8c5.3-4.9,12-6.1,17.3-6.1c2.4,0,4.5,0.3,6.1,0.5c5.5,0.9,11.1,3,16.4,6
									c4.7,2.8,9.2,6.2,13.2,10.4c0.5,0.5,0.9,1,1.4,1.5c8.7,9.5,14.1,21.4,14.9,32.5c0.3,4.1,0.1,10.8-3.1,16.8
									C2607.7,858.4,2621.2,849.2,2636.7,839.7z"></path>
								<path d="M2582,817.6c-2.3,1.7-4.5,3.5-6.7,5.3c-15,11.1-28.6,22.8-41.9,36.2c-7.1-8.9-11.5-19.5-12.2-29.4
									c-0.4-5.5,0.1-15.9,7.8-22.8c5.3-4.9,12-6.1,17.3-6.1c2.4,0,4.5,0.3,6.1,0.5c5.5,0.9,11.1,3,16.4,6
									C2573.5,810,2578,813.5,2582,817.6z" class="st2"></path>
							</g>
							<g>
								<path d="M1329.5,905.4c-1-15.6-4.4-31.6-10.1-47.2c-1.6-4.5-3.5-9-5.5-13.5c-31.9-69.1-98.7-104-152.1-79.4
									c-53.4,24.6-70.1,98.1-38.2,167.2c1.8,3.8,3.7,7.6,5.7,11.2c8,14.6,17.8,27.6,28.9,38.6c14.3-9.6,29.4-19,45.6-27.9
									c-12.2-9.3-23.1-22.5-31.1-37.9c-1-1.8-1.9-3.6-2.7-5.5c-19.3-41.7-13.2-87.3,13.2-99.4c4.5-2.1,9.5-3.1,14.6-3.1
									c12.3,0,25.7,5.8,38,15.8c12.4,10.1,23.6,24.4,31.6,41.7c0.9,2,1.8,4.1,2.6,6.2c6.4,16.1,9.3,32.9,8.4,48.2
									C1294.6,914.7,1311.6,909.6,1329.5,905.4z"></path>
								<path d="M1270.1,872.3c-20.5,7-40.7,15.3-60.6,24.9c-12.8,6.2-25,12.7-36.7,19.4c-1-1.8-1.9-3.6-2.7-5.5
									c-19.3-41.7-13.2-87.3,13.2-99.4c4.5-2.1,9.5-3.1,14.6-3.1c12.3,0,25.7,5.8,38,15.8c12.4,10.1,23.6,24.4,31.6,41.7
									C1268.4,868.2,1269.2,870.2,1270.1,872.3z" class="st2"></path>
							</g>
							<g>
								<path d="M1048.3,1064c18.6-13.3,38.6-29.3,60.8-46.2c0.1-18-2.7-35.4-8.4-51.3c-0.3-0.7-0.5-1.4-0.8-2.1
									c-11.7-30.5-34-52.3-61.5-60c-23-6.4-48.1-2.6-70.8,10.6c-5,2.9-9.9,6.2-14.7,10.1c-13.5,10.8-25.2,24.6-34.6,40.6
									c-0.1,35,1.3,70.5,6.5,106.4c0,0,1,20.4,30.8,25.3c-10.8-18.7-13.7-47.6-5.6-76.6c3.7-13.1,9.5-25.5,16.7-35.9
									c5.3-7.8,11.4-14.5,18.1-19.8c6.4-5.1,17.9-12.5,30.9-12.5c2.9,0,5.9,0.4,8.9,1.2c16.5,4.6,24.7,21,28.1,30.4
									c1.6,4.3,2.8,8.8,3.6,13.6c1.1,6,1.7,12.4,1.7,18.9c0,10.8-1.5,22.1-4.7,33.2C1051.9,1054.6,1050.2,1059.4,1048.3,1064z"></path>
								<path d="M1056.2,997.6c-33,25.5-66.8,51.5-85.7,52.5c-2.5-21.7-3.6-43.5-3.9-65.3c5.3-7.8,11.4-14.5,18.1-19.8
									c6.4-5.1,17.9-12.5,30.9-12.5c2.9,0,5.9,0.4,8.9,1.2c16.5,4.6,24.7,21,28.1,30.4C1054.2,988.3,1055.4,992.8,1056.2,997.6z" class="st2"></path>
							</g>
						</g>
					</g>
				</g>
				<g>
					<path d="M2604,1792.4H386.9c-11,0-19.9-8.9-19.9-19.9s8.9-19.9,19.9-19.9H2604c11,0,19.9,8.9,19.9,19.9
						S2615,1792.4,2604,1792.4z"></path>
				</g>
				<g>
					<path d="M2168.5,804.9c0.3-3.9,1.8-7.6,4.4-10.8c4.9-6,12.7-8.4,19.8-6.8c2.9,0.7,5.7,2,8.1,4c5.5,4.5,10.9,9,16.2,13.4
						c82.5,69.2,150.2,138.3,202.4,206.7c10.7,14,20.8,28,30.2,42c-8.1,12.3-16.3,24.2-24.6,35.6c-9-14-18.8-28.1-29.2-42.3
						c-52.9-71.7-123.8-144.8-212-218c-2.7-2.3-5.5-4.5-8.2-6.8C2170.5,817.7,2168,811.2,2168.5,804.9z"></path>
					<path d="M2529.8,1456.9c-33.6,94.2-100.1,153-150,185.7c-63.8,41.9-139.1,65.9-206.4,65.9c-161.5,0-202.7-23.8-235.9-42.9
						c-3.4-1.9-6.5-3.7-9.6-5.4c-13.7-7.4-26.8-12-54.2-12c-30.3,0-41.6,15.6-50.9,43.9c-2.2,6.7-4.3,14.1-6.6,22.1
						c-2.7,9.8-5.6,20.2-9.4,30.2c-1.1,2.8-2.2,5.5-3.5,8.2c-10.1,21.9-26.3,39.8-57.7,39.8c-40.4,0-59.1-20.2-71.2-39.8
						c-1.8-2.8-3.4-5.6-4.9-8.3c-0.9-1.6-1.7-3.1-2.5-4.6c-11.1-20.2-16.4-28.4-35.4-28.4c-17.7,0-25.3,7.4-40.7,24.3
						c-2.4,2.6-4.9,5.3-7.5,8.1c-2.8,3-5.8,5.9-9,8.9c-8.2,7.7-18,15.3-30.5,21.8c-1,0.5-2,1-3.1,1.6c-19.2,9.3-44.5,15.9-79.6,16.4
						c-0.4,0-0.9,0-1.3,0c-0.8,0-1.6,0-2.4,0h-211.2c-6.4,0-12.5-0.1-18.3-0.2c-77.7-1.9-97.8-16.4-115.8-39.5
						c-0.9-1.1-1.8-2.3-2.7-3.5c-1.4-1.8-2.7-3.6-4.1-5.4c-6.9-8.6-15.4-16.9-35.2-25.3c-20.5-8.7-41.8-0.4-64.1,11.5
						c-5.3,2.8-10.7,5.9-16.1,9c-8.4,4.8-16.9,9.6-25.4,13.6c-1.8,0.9-3.6,1.7-5.4,2.4c-16.1,6.9-32.3,10.3-48.4,4.6
						c-4.7-1.6-9-4-13-7c-10.9-8-19.7-20.8-26.7-38.8c-9.8-25.2-17.5-37.4-25.7-40.7c-9.4-3.7-27.7-0.6-53.1,3.7
						c-34.1,5.9-85.7,14.7-161.3,14.7c-157.8,0-241.9-71.2-284.7-130.8c-23.2-32.3-36.9-64.6-44.9-89.1c-3.6-11-6-20.5-7.6-27.6
						c-2-8.8-2.7-14.2-2.8-14.9c-0.2-1.3-0.2-2.6-0.1-3.9c0.6-9.3,7.8-17.2,17.3-18.3c5.6-0.7,11,1,15.1,4.3
						c3.8,3.1,6.5,7.6,7.2,12.9c0,0.2,0.2,1.6,0.7,4c1,5.2,3.1,15.1,7.1,27.9c6.9,22,19.4,52.7,41.4,83
						c54.4,74.9,139,112.9,251.4,112.9c72.2,0,119.8-8.1,154.6-14.1c65.7-11.3,93.5-12.9,122.5,61.6c5,12.8,10.7,20.9,16,22.8
						c7.1,2.5,20.2-3.4,33.8-10.8c4.2-2.2,8.4-4.6,12.5-7c11.1-6.3,23.1-13.1,35.8-18.6c24.2-10.4,51.1-16,79.6-3.9
						c33.7,14.3,46.3,31.1,55.6,43.3c5.6,7.4,10.4,13.8,22.5,18.6c13.9,5.5,37.4,8.8,82.5,8.8h211.2c24.4,0,42.5-3.3,56.7-8.5
						c10.1-3.7,18.2-8.5,25.1-13.7c8.8-6.6,15.7-14.2,22.5-21.6c6.6-7.2,13.5-14.7,21.8-21.1c12-9.2,27-16.1,48.2-16.1
						c43.2,0,58.8,28.3,70.2,49c5.6,10.1,10.1,18.3,16.5,23.8c6.3,5.3,14.4,8.3,27.3,8.3c7.4,0,12.5-2.2,16.9-8.3
						c5.4-7.2,9.6-20,15.4-40.7c7.2-26,17-61.3,45-80.8c12.7-8.8,29.2-14.4,50.9-14.4c1,0,1.9,0,2.8,0c16.6,0.2,29.5,1.9,40.3,4.7
						c16.8,4.3,28.5,11,40.5,18c8.5,4.9,17.7,10.2,30.2,15.2c30,12,79.3,22.4,185.8,22.4c117.2,0,268.5-84.2,319-225.3
						c22-61.5,23.4-127.7,5.1-196.9c-5.5-21-12.9-42.3-22.1-63.9c7.7-16.3,14.9-32.6,21.6-48.6c4.5,9,8.7,17.9,12.6,26.9
						c4.9,11.3,9.4,22.5,13.4,33.6C2556.6,1287.4,2558.9,1375.5,2529.8,1456.9z"></path>
				</g>
				<g>
					<path d="M256.6,1470.8l108.5-45.8l18.3-10.5l-24.2-55.8c0,0,1.5-37.2,2-37.2s10.8-24.4,10.8-24.4L315.2,1174
						L194.3,1231l-68.8,27l48.4,134.8l44.8-3.8L256.6,1470.8z" class="st3"></path>
					<g>
						<path d="M397.6,1415.3l-31-73l20.2-8.6c4.2-1.8,7.4-5.1,9.1-9.3c1.7-4.2,1.6-8.9-0.1-13L334,1166c-3.7-8.7-13.7-12.7-22.3-9
							l-19.9,8.5l-44.9-105.6c-3.7-8.7-13.7-12.7-22.3-9c-8.7,3.7-12.7,13.7-9,22.3l44.8,105.6l-85,36.1l-46.2-108.7
							c-3.7-8.7-13.7-12.7-22.3-9c-8.7,3.7-12.7,13.7-9,22.3l46.2,108.7l-28.6,12.2c-4.1,1.8-7.4,5.1-9.1,9.3
							c-1.7,4.2-1.6,8.9,0.1,13.1l61.8,145.4c2.8,6.5,9.1,10.4,15.7,10.4c2.2,0,4.5-0.4,6.6-1.3l20.2-8.6l31,73
							c1.5,3.5,4.3,6.2,7.8,7.6c1.7,0.7,3.5,1,5.3,1c1.9,0,3.8-0.4,5.5-1.1l40.9-17.3l36.8-15.6l52.1-22.1c3.5-1.5,6.2-4.3,7.6-7.8
							C399.1,1422.7,399.1,1418.8,397.6,1415.3z M192.9,1379.1l-48.4-114l164.9-70.1l48.4,114L192.9,1379.1z M244.1,1414.5
							l-7.2-17.1l103.6-44l7,16.4L244.1,1414.5z M330.9,1428.2l-37.3,15.9l-31.3,13.3l-7.1-16.7l35.5-15.4l32.4-14l35.4-15.3
							l7.4,17.4L330.9,1428.2z"></path>
						<path d="M307.3,1293l-11.6-27.2c-0.7-1.7-2.1-3.1-3.9-3.8c-1.7-0.7-3.7-0.7-5.4,0l-87.8,37.3c-3.6,1.5-5.3,5.7-3.7,9.3
							l11.6,27.2c0.7,1.7,2.1,3.1,3.9,3.8c0.9,0.3,1.8,0.5,2.7,0.5c0.9,0,1.9-0.2,2.8-0.5l87.8-37.3
							C307.1,1300.7,308.8,1296.6,307.3,1293z M216.7,1323.7l-6-14.2l74.7-31.7l6,14.2L216.7,1323.7z"></path>
					</g>
				</g>
				<g>
					<path d="M2127.2,847.4l95.5-68.9l15.4-14.3l-36.1-49c0,0-6.8-36.6-6.3-36.7c0.5-0.1,5-26.2,5-26.2L2117.8,545
						l-105,82.7l-61,41.7l77.3,120.6l42.8-13.7L2127.2,847.4z" class="st3"></path>
					<g>
						<path d="M2252.1,761.8l-46.6-64.2l17.7-12.9c3.7-2.6,6.1-6.6,6.8-11.1c0.7-4.5-0.4-9-3-12.7l-92.7-127.9
							c-5.5-7.6-16.2-9.3-23.8-3.8l-17.5,12.7l-67.3-92.9c-5.5-7.6-16.2-9.3-23.8-3.8c-7.6,5.5-9.3,16.2-3.8,23.8l67.4,92.9
							l-74.8,54.2l-69.3-95.6c-5.5-7.6-16.2-9.3-23.8-3.8c-7.6,5.5-9.3,16.2-3.8,23.8l69.3,95.6l-25.2,18.3
							c-3.7,2.6-6.1,6.6-6.8,11.1s0.4,9,3,12.7l92.7,127.9c4.1,5.7,11.1,8.1,17.6,6.6c2.2-0.5,4.3-1.4,6.2-2.8l17.7-12.9l46.6,64.2
							c2.2,3.1,5.5,5.1,9.3,5.7c1.8,0.3,3.7,0.2,5.4-0.2c1.8-0.4,3.6-1.2,5.2-2.3l49.1-35.6l33.2-24.1l31.8-23.1
							c3-2.2,5.1-5.5,5.7-9.3C2255.3,768.7,2254.3,764.9,2252.1,761.8z M2044.5,772.3L1971.8,672l145-105.2l72.7,100.3L2044.5,772.3
							z M2102.3,795.4l-10.9-15l91.1-66.1l10.5,14.5L2102.3,795.4z M2192.8,787.3l-24.3,17.6l-38.9,28.2l-10.6-14.7l90.7-66.7
							l11.1,15.3L2192.8,787.3z"></path>
						<path d="M2136.8,662.8l-17.4-24c-1.1-1.5-2.8-2.6-4.6-2.8c-1.8-0.3-3.7,0.1-5.3,1.2l-77.2,56c-3.2,2.3-3.9,6.7-1.6,9.9
							l17.4,24c1.1,1.5,2.8,2.6,4.6,2.8c0.9,0.1,1.8,0.1,2.7-0.1c0.9-0.2,1.8-0.6,2.6-1.2l77.2-56
							C2138.4,670.4,2139.1,666,2136.8,662.8z M2055.4,713l-9.1-12.5l65.7-47.6l9.1,12.5L2055.4,713z"></path>
					</g>
				</g>
			</g>
			<path d="M1810.4,1567.9l12.4-131.3v307.9h-104.6l14-18.1c0,0,38.8-21.4,46.1-64.7
				C1785.7,1618.4,1810.4,1567.9,1810.4,1567.9z" class="st2"></path>
		</g>
		<g>
			<path d="M238.9,1877.1c137.5,0,254.1,94.6,254.1,235.6c0,141.3-116.6,235.3-254.1,235.3c-57.1,0-114.6,0.3-171.7,0.3v-471.2
				H238.9z M238.9,2244.4c77.7,0,140.5-52.6,140.5-131.8c0-78.5-63.4-131.8-140.5-131.8h-58.1v263.5H238.9z"></path>
			<path d="M667.1,1877.1l207.6,275.4v-275.4h113.6v471.2h-94L687,2072.9v275.4H573.4v-471.2H667.1z"></path>
			<path d="M1241.7,2253c22.9,0,74.1-8.2,74.1-38.8c0-73.3-235.2-38.8-235.2-202.7c0-101.2,99.3-141.6,187.7-141.6
				c49.2,0,110.6,19.7,154.8,40.4l-38.2,96c-30.9-12.8-82.7-32.5-116.3-32.5c-25.2,0-74.1,3.6-74.1,38.1
				c0,76.6,234.9,40.7,234.9,202.7c0,99.6-100.7,142-187.7,142c-53.5,0-116.9-23.3-165.8-43.7l40.9-96.3
				C1149.3,2230,1206.5,2253,1241.7,2253z"></path>
			<path d="M1753.2,1877.1l195.3,471.2h-122.6l-36.5-88.4H1615l-36.9,88.4h-122.2l195.3-471.2H1753.2z M1647.6,2173.1
				h109l-54.1-141.6L1647.6,2173.1z" class="st3"></path>
			<path d="M2423.7,2158c0,112.1-95.3,200.4-207.3,200.4c-112.6,0-207-87.7-207-200.4v-281h114.3v281
				c0,51.6,39.2,96,92.7,96c52.8,0,92.4-45,92.4-96v-281h114.9V2158z" class="st3"></path>
			<path d="M2711.3,2194.8h-54.8v153.5h-113.9v-471.2h185.7c88.7,0,170.7,68.3,170.7,159c0,52.6-27.2,106.8-74.7,132.8
				l108.6,179.4h-131.9L2711.3,2194.8z M2653.1,2094.3h75.1c31.9,0,56.5-23.3,56.5-55.2c0-30.9-25.6-54.5-56.5-54.5h-75.1V2094.3z" class="st3"></path>
		</g>
		<g>
			<g>
				<path d="M287.4,2452.6l38,103h-23.9l-7.1-19.3h-34l-7.2,19.3h-23.8l38-103H287.4z M266.8,2517.3H288l-10.5-31L266.8,2517.3z"></path>
				<path d="M368.4,2452.6l40.4,60.2v-60.2H431v103h-18.3l-40.4-60.2v60.2h-22.1v-103H368.4z"></path>
				<path d="M563.5,2452.6l38,103h-23.9l-7.1-19.3h-34l-7.2,19.3h-23.8l38-103H563.5z M542.9,2517.3h21.2l-10.5-31L542.9,2517.3z"></path>
				<path d="M644.5,2452.6l40.4,60.2v-60.2h22.1v103h-18.3l-40.4-60.2v60.2h-22.1v-103H644.5z"></path>
				<path d="M732.6,2504c0-30.5,21.9-53.7,49.1-53.7c16.4,0,30.7,7.5,40.2,22.6l-16.9,14.7c-4.4-8.8-14.3-14.6-23.3-14.6
					c-15.1,0-27,14.4-27,31c0,33,37.9,43,51.2,14.7l17.7,14.3C797.6,2577.6,732.6,2558.9,732.6,2504z"></path>
				<path d="M846.4,2452.6h22.2v103h-22.2V2452.6z"></path>
				<path d="M966.8,2452.6v22.8l-45.1-0.1v15.5h34.9v22.7h-34.9v19.2h45.1v22.8h-67.3v-103H966.8z"></path>
				<path d="M1018.5,2452.6l40.4,60.2v-60.2h22.1v103h-18.3l-40.4-60.2v60.2h-22.1v-103H1018.5z"></path>
				<path d="M1182.7,2452.6v22.8H1156v80.2h-22.2v-80.2H1107v-22.8H1182.7z"></path>
				<path d="M1338.2,2522.8c0,18.5-13.6,32.8-30.1,32.8h-37.6v-103h36.2c14.3,0,27.2,14.2,27.2,30c0,6.7-3.1,13.1-7.8,17.2
					C1333.6,2504.8,1338.2,2513,1338.2,2522.8z M1306,2490c7.4,0,7.7-14.6-0.1-14.6h-13.8v14.6H1306z M1292.1,2532.9
					c5.2,0,10.4,0,15.7-0.1c10.8-0.1,11-20-0.6-20h-15.1V2532.9z"></path>
				<path d="M1434.7,2452.6v22.8l-45.1-0.1v15.5h34.9v22.7h-34.9v19.2h45.1v22.8h-67.3v-103H1434.7z"></path>
				<path d="M1512.2,2452.6l38,103h-23.9l-7.1-19.3h-34l-7.2,19.3h-23.8l38-103H1512.2z M1491.6,2517.3h21.2l-10.5-31L1491.6,2517.3
					z"></path>
				<path d="M1600.8,2534.8c4.5,0,14.4-1.8,14.4-8.5c0-16-45.8-8.5-45.8-44.3c0-22.1,19.3-31,36.5-31c9.6,0,21.5,4.3,30.1,8.8
					l-7.4,21c-6-2.8-16.1-7.1-22.6-7.1c-4.9,0-14.4,0.8-14.4,8.3c0,16.7,45.7,8.9,45.7,44.3c0,21.8-19.6,31-36.5,31
					c-10.4,0-22.8-5.1-32.3-9.6l8-21C1582.8,2529.8,1594,2534.8,1600.8,2534.8z"></path>
				<path d="M1733.2,2452.6v22.8h-26.7v80.2h-22.2v-80.2h-26.8v-22.8H1733.2z"></path>
				<path d="M1862.2,2557.9c-26.9,0-49.3-23.3-49.3-53.6c0-30.1,22.4-53.9,49.3-53.9c26.9,0,49.3,23.7,49.3,53.9
					C1911.5,2534.5,1889.1,2557.9,1862.2,2557.9z M1889.3,2504.3c0-16.9-11.6-31.1-27.1-31.1c-15.5,0-27.2,14.2-27.2,31.1
					c0,16.8,11.8,31,27.2,31S1889.3,2521.1,1889.3,2504.3z"></path>
				<path d="M2004.1,2452.6v22.6h-41.4v15.2h30.7v22.7h-30.7v42.5h-22v-103H2004.1z"></path>
				<path d="M2155.3,2452.6v22.8h-26.7v80.2h-22.2v-80.2h-26.8v-22.8H2155.3z"></path>
				<path d="M2203.4,2452.6v39.4h32.9v-39.4h22.2v103h-22.2v-40.8h-32.9v40.8h-22.2v-103H2203.4z"></path>
				<path d="M2358,2452.6v22.8l-45.1-0.1v15.5h34.9v22.7h-34.9v19.2h45.1v22.8h-67.3v-103H2358z"></path>
				<path d="M2515.6,2452.3l18,64.7l16.9-64.4h22.8l-29.8,103h-18.5l-18.6-68l-18.7,68h-18.4l-29.8-103h22.8l16.9,64.4l18-64.7
					H2515.6z"></path>
				<path d="M2671,2452.6v22.8l-45.1-0.1v15.5h34.9v22.7h-34.9v19.2h45.1v22.8h-67.3v-103H2671z"></path>
				<path d="M2770.5,2522.8c0,18.5-13.6,32.8-30.1,32.8h-37.6v-103h36.2c14.3,0,27.2,14.2,27.2,30c0,6.7-3.1,13.1-7.8,17.2
					C2765.9,2504.8,2770.5,2513,2770.5,2522.8z M2738.3,2490c7.4,0,7.7-14.6-0.1-14.6h-13.8v14.6H2738.3z M2724.4,2532.9
					c5.2,0,10.4,0,15.7-0.1c10.8-0.1,11-20-0.6-20h-15.1V2532.9z"></path>
			</g>
			<g>
				<rect height="25.3" width="99.5" y="2486.4" x="76.4"></rect>
				<rect height="25.3" width="99.5" y="2486.4" x="2824.1"></rect>
			</g>
		</g>
	</g>
</g>
</svg>
